<?xml version="1.0" encoding="utf-8"?>
<!-- Generator: Adobe Illustrator 21.0.2, SVG Export Plug-In . SVG Version: 6.00 Build 0)  -->
<svg version="1.1" id="Layer_1" xmlns="http://www.w3.org/2000/svg" xmlns:xlink="http://www.w3.org/1999/xlink" x="0px" y="0px"
	 viewBox="0 0 400 400" style="enable-background:new 0 0 400 400;" xml:space="preserve">
<style type="text/css">
	.st0{clip-path:url(#SVGID_2_);fill:#1D364C;}
	.st1{clip-path:url(#SVGID_4_);fill:#0296DA;}
	.st2{clip-path:url(#SVGID_4_);fill:#1477AE;}
	.st3{clip-path:url(#SVGID_4_);fill:#FABF2D;}
	.st4{clip-path:url(#SVGID_4_);fill:#29B5F5;}
	.st5{clip-path:url(#SVGID_4_);fill:#80D3F9;}
	.st6{clip-path:url(#SVGID_4_);fill:#FFFFFF;}
	.st7{clip-path:url(#SVGID_4_);fill:#DEE8F1;}
</style>
<g>
	<defs>
		<rect id="SVGID_1_" x="9" y="7.8" width="385.2" height="385.2"/>
	</defs>
	<clipPath id="SVGID_2_">
		<use xlink:href="#SVGID_1_"  style="overflow:visible;"/>
	</clipPath>
	<path class="st0" d="M201.6,393c106.4,0,192.6-86.2,192.6-192.6S307.9,7.8,201.6,7.8S9,94.1,9,200.4S95.2,393,201.6,393"/>
</g>
<g>
	<defs>
		<circle id="SVGID_3_" cx="201.6" cy="200.4" r="192.6"/>
	</defs>
	<clipPath id="SVGID_4_">
		<use xlink:href="#SVGID_3_"  style="overflow:visible;"/>
	</clipPath>
	<path class="st1" d="M66.1,315.3c0,0-13.4,0-13.4,13.4v6.6c0,0,0,13.4,13.4,13.4h266.9c0,0,13.4,0,13.4-13.4v-6.6
		c0,0,0-13.4-13.4-13.4H66.1z"/>
	<path class="st2" d="M37.1,288.5c0,0-20.1,0-20.1,20.1V461h46.5V308.6c0,0,0-20.1-20.1-20.1H37.1z"/>
	<path class="st2" d="M359.9,288.5c0,0-20.1,0-20.1,20.1V461h46.5V308.6c0,0,0-20.1-20.1-20.1H359.9z"/>
	<path class="st3" d="M132.1,51.2c0,0-33,0-33,33v18.5c0,0,0,33,33,33h149.2c0,0,33,0,33-33V84.2c0,0,0-33-33-33H132.1z"/>
	<path class="st2" d="M351.9,204.7c15,0,27.2-12.2,27.2-27.2c0-15-12.2-27.2-27.2-27.2s-27.2,12.2-27.2,27.2
		C324.7,192.6,336.9,204.7,351.9,204.7"/>
	<path class="st2" d="M57.9,204.7c15,0,27.2-12.2,27.2-27.2c0-15-12.2-27.2-27.2-27.2s-27.2,12.2-27.2,27.2
		C30.8,192.6,42.9,204.7,57.9,204.7"/>
	<path class="st4" d="M110.9,87.3c0,0-50.9,0-50.9,50.9v78.8c0,0,0,50.9,50.9,50.9h191.4c0,0,50.9,0,50.9-50.9v-78.8
		c0,0,0-50.9-50.9-50.9H110.9z"/>
	<path class="st2" d="M100.7,282.7c0,0-23.8,0-23.8,23.8V488h249.9V306.5c0,0,0-23.8-23.8-23.8H100.7z"/>
	<path class="st5" d="M219,315.3h-52.8c-5,0-9,4-9,9v102.5c0,5,4,9,9,9h71.4c5,0,9-4,9-9v-83.9L219,315.3z"/>
	<rect x="192.3" y="372.3" class="st6" width="35.9" height="4.3"/>
	<rect x="192.3" y="384.8" class="st6" width="35.9" height="4.3"/>
	<path class="st6" d="M180.1,376.6h-1.8c-0.9,0-1.6-0.7-1.6-1.6v-1.1c0-0.9,0.7-1.6,1.6-1.6h1.8c0.9,0,1.6,0.7,1.6,1.6v1.1
		C181.8,375.9,181,376.6,180.1,376.6"/>
	<path class="st6" d="M180.1,389.1h-1.8c-0.9,0-1.6-0.7-1.6-1.6v-1.1c0-0.9,0.7-1.6,1.6-1.6h1.8c0.9,0,1.6,0.7,1.6,1.6v1.1
		C181.8,388.4,181,389.1,180.1,389.1"/>
	<path class="st7" d="M228,342.8h18.6L219,315.3v18.6C219,338.8,223,342.8,228,342.8"/>
	<path class="st6" d="M141.3,151.5c4.3,0,7.9-3.5,7.9-7.9c0-4.3-3.5-7.9-7.9-7.9c-4.3,0-7.9,3.5-7.9,7.9
		C133.4,148,136.9,151.5,141.3,151.5"/>
	<path class="st6" d="M173.3,147.7c0,13.3-10.8,24.2-24.2,24.2c-13.4,0-24.2-10.8-24.2-24.2c0-13.3,10.8-24.2,24.2-24.2
		C162.5,123.5,173.3,134.3,173.3,147.7 M184.5,147.7c0-19.5-15.8-35.3-35.3-35.3s-35.3,15.8-35.3,35.3c0,19.5,15.8,35.3,35.3,35.3
		S184.5,167.2,184.5,147.7"/>
	<path class="st6" d="M252.8,151.5c4.3,0,7.9-3.5,7.9-7.9c0-4.3-3.5-7.9-7.9-7.9c-4.3,0-7.9,3.5-7.9,7.9
		C244.9,148,248.4,151.5,252.8,151.5"/>
	<path class="st6" d="M284.8,147.7c0,13.3-10.8,24.2-24.2,24.2c-13.4,0-24.2-10.8-24.2-24.2c0-13.3,10.8-24.2,24.2-24.2
		C274,123.5,284.8,134.3,284.8,147.7 M295.9,147.7c0-19.5-15.8-35.3-35.3-35.3c-19.5,0-35.3,15.8-35.3,35.3
		c0,19.5,15.8,35.3,35.3,35.3C280.1,183,295.9,167.2,295.9,147.7"/>
	<path class="st6" d="M143.4,218.4c1.8,2.2,3.8,4.3,5.8,6.3v-13.1c-2-0.8-3.9-1.7-5.8-2.6V218.4z M155.2,229.8
		c3.3,2.6,6.8,4.9,10.4,6.9v-19.5c-3.5-1-7-2.1-10.4-3.3V229.8z M171.6,239.6c3.4,1.5,6.8,2.7,10.4,3.7v-22.6
		c-3.5-0.5-7-1.2-10.4-1.9V239.6z M188,244.6c3.4,0.6,6.9,1.1,10.4,1.2V222c-3.5-0.1-7-0.3-10.4-0.6V244.6z M204.4,245.8
		c3.5-0.1,7-0.5,10.4-1.1v-23.3c-3.4,0.3-6.9,0.6-10.4,0.6V245.8z M220.8,243.5c3.6-0.9,7.1-2.1,10.4-3.5v-21.1
		c-3.4,0.7-6.9,1.4-10.4,1.9V243.5z M247.6,214.2c-3.4,1.2-6.9,2.3-10.4,3.2v19.7c3.7-1.9,7.2-4.2,10.4-6.6V214.2z M260.3,218.4V209
		c-2.2,1.1-4.5,2-6.8,3v13.6C255.9,223.3,258.2,220.9,260.3,218.4"/>
</g>
</svg>
