<?xml version="1.0" encoding="utf-8"?>
<!-- Generator: Adobe Illustrator 21.0.0, SVG Export Plug-In . SVG Version: 6.00 Build 0)  -->
<svg version="1.1" id="Layer_1" xmlns="http://www.w3.org/2000/svg" xmlns:xlink="http://www.w3.org/1999/xlink" x="0px" y="0px"
	 viewBox="0 0 412.8 696" style="enable-background:new 0 0 412.8 696;" xml:space="preserve">
<style type="text/css">
	.st0{clip-path:url(#SVGID_2_);fill:#FBC02D;}
	.st1{clip-path:url(#SVGID_2_);fill:#61859B;}
	.st2{clip-path:url(#SVGID_2_);fill:#3BB2D0;}
	.st3{clip-path:url(#SVGID_4_);fill:#3BA0BA;}
	.st4{fill:#50667F;}
	.st5{clip-path:url(#SVGID_6_);fill:#0297DB;}
	.st6{clip-path:url(#SVGID_6_);fill:#3BB2D0;}
	.st7{clip-path:url(#SVGID_6_);fill:#81D4FA;}
	.st8{clip-path:url(#SVGID_6_);fill:#F9886C;}
	.st9{fill:#FFFFFF;}
	.st10{clip-path:url(#SVGID_8_);fill:#FFFFFF;}
	.st11{clip-path:url(#SVGID_8_);fill:#DFE9F2;}
	.st12{fill:#3BB2D0;}
	.st13{clip-path:url(#SVGID_10_);fill:#4A677D;}
	.st14{clip-path:url(#SVGID_12_);fill:#61859B;}
	.st15{clip-path:url(#SVGID_12_);fill:#FEFEE6;}
</style>
<g>
	<g>
		<defs>
			<rect id="SVGID_1_" x="11.5" y="11.3" width="390.1" height="672.5"/>
		</defs>
		<clipPath id="SVGID_2_">
			<use xlink:href="#SVGID_1_"  style="overflow:visible;"/>
		</clipPath>
		<path class="st0" d="M146.8,71.5c0,0-27.9,0-27.9,27.9V115c0,0,0,27.9,27.9,27.9h126.3c0,0,27.9,0,27.9-27.9V99.4
			c0,0,0-27.9-27.9-27.9H146.8z"/>
		<path class="st1" d="M332.8,201.4c12.7,0,23-10.3,23-23c0-12.7-10.3-23-23-23s-23,10.3-23,23C309.8,191.1,320.1,201.4,332.8,201.4
			"/>
		<path class="st1" d="M84.1,201.4c12.7,0,23-10.3,23-23c0-12.7-10.3-23-23-23s-23,10.3-23,23C61.1,191.1,71.4,201.4,84.1,201.4"/>
		<path class="st2" d="M334,211.8v-66.7c0,0,0-28.6-23.3-39.2c-5.1-53.1-49.7-94.6-104.1-94.6c-56,0-101.7,44-104.5,99.3
			c-8.7,6.1-16.2,16.6-16.2,34.5v66.7c0,0,0,43.1,43.1,43.1h162C290.9,254.8,334,254.8,334,211.8"/>
	</g>
	<g>
		<defs>
			<path id="SVGID_3_" d="M206.6,11.3c-56,0-101.7,44-104.5,99.3c-8.7,6.1-16.2,16.6-16.2,34.5v66.7c0,0,0,43.1,43.1,43.1h162
				c0,0,43.1,0,43.1-43.1v-66.7c0,0,0-28.6-23.3-39.2C305.7,52.8,261,11.3,206.6,11.3z"/>
		</defs>
		<clipPath id="SVGID_4_">
			<use xlink:href="#SVGID_3_"  style="overflow:visible;"/>
		</clipPath>
		<path class="st3" d="M121,259.6c0,0-31.6-170.4,39.9-256.2c71.5-85.9-68.8,7.9-68.8,7.9L33.3,93.9l-21.8,88.5v72.4l95.2,17.5
			L121,259.6z"/>
	</g>
	<rect x="137.1" y="436.8" class="st4" width="25.5" height="36.9"/>
	<rect x="248.6" y="436.8" class="st4" width="25.5" height="36.9"/>
	<g>
		<defs>
			<rect id="SVGID_5_" x="11.5" y="11.3" width="390.1" height="672.5"/>
		</defs>
		<clipPath id="SVGID_6_">
			<use xlink:href="#SVGID_5_"  style="overflow:visible;"/>
		</clipPath>
		<path class="st5" d="M90.9,295c0,0-11.4,0-11.4,11.4v5.5c0,0,0,11.4,11.4,11.4h225.9c0,0,11.4,0,11.4-11.4v-5.5
			c0,0,0-11.4-11.4-11.4H90.9z"/>
		<path class="st6" d="M66.4,272.3c0,0-17,0-17,17v111.9c0,0,0,17,17,17h5.3c0,0,17,0,17-17V289.4c0,0,0-17-17-17H66.4z"/>
		<path class="st6" d="M339.6,272.3c0,0-17,0-17,17v111.9c0,0,0,17,17,17h5.3c0,0,17,0,17-17V289.4c0,0,0-17-17-17H339.6z"/>
		<path class="st7" d="M148.3,468.4c0,0-25.6,0-25.6,25.6v99.9c0,0,0,25.6,25.6,25.6h3.2c0,0,25.6,0,25.6-25.6v-99.9
			c0,0,0-25.6-25.6-25.6H148.3z"/>
		<path class="st6" d="M121.3,516.7c0,0-11.4,0-11.4,11.4v5.6c0,0,0,11.4,11.4,11.4h57.3c0,0,11.4,0,11.4-11.4v-5.6
			c0,0,0-11.4-11.4-11.4H121.3z"/>
		<path class="st7" d="M259.8,468.4c0,0-25.6,0-25.6,25.6v99.9c0,0,0,25.6,25.6,25.6h3.2c0,0,25.6,0,25.6-25.6v-99.9
			c0,0,0-25.6-25.6-25.6H259.8z"/>
		<path class="st6" d="M232.7,516.7c0,0-11.4,0-11.4,11.4v5.6c0,0,0,11.4,11.4,11.4H290c0,0,11.4,0,11.4-11.4v-5.6
			c0,0,0-11.4-11.4-11.4H232.7z"/>
		<path class="st6" d="M120.3,267.5c0,0-20.1,0-20.1,20.1v153.6h211.5V287.6c0,0,0-20.1-20.1-20.1H120.3z"/>
		<path class="st8" d="M149.9,592.2c-22.5,0-40.8,17.9-41.6,40.2h83.3C190.8,610.1,172.4,592.2,149.9,592.2"/>
		<path class="st8" d="M261.4,592.2c-22.5,0-40.8,17.9-41.6,40.2H303C302.2,610.1,283.9,592.2,261.4,592.2"/>
		<path class="st7" d="M220.4,295h-44.7c-4.2,0-7.6,3.4-7.6,7.6v86.7c0,4.2,3.4,7.6,7.6,7.6h60.5c4.2,0,7.6-3.4,7.6-7.6v-71
			L220.4,295z"/>
	</g>
	<rect x="197.8" y="343.2" class="st9" width="30.4" height="3.7"/>
	<rect x="197.8" y="353.8" class="st9" width="30.4" height="3.7"/>
	<rect x="197.8" y="364.4" class="st9" width="30.4" height="3.7"/>
	<g>
		<defs>
			<rect id="SVGID_7_" x="11.5" y="11.3" width="390.1" height="672.5"/>
		</defs>
		<clipPath id="SVGID_8_">
			<use xlink:href="#SVGID_7_"  style="overflow:visible;"/>
		</clipPath>
		<path class="st10" d="M187.5,346.9H186c-0.8,0-1.4-0.6-1.4-1.4v-0.9c0-0.8,0.6-1.4,1.4-1.4h1.5c0.8,0,1.4,0.6,1.4,1.4v0.9
			C188.9,346.3,188.3,346.9,187.5,346.9"/>
		<path class="st10" d="M187.5,357.5H186c-0.8,0-1.4-0.6-1.4-1.4v-0.9c0-0.8,0.6-1.4,1.4-1.4h1.5c0.8,0,1.4,0.6,1.4,1.4v0.9
			C188.9,356.9,188.3,357.5,187.5,357.5"/>
		<path class="st10" d="M187.5,368.1H186c-0.8,0-1.4-0.6-1.4-1.4v-0.9c0-0.8,0.6-1.4,1.4-1.4h1.5c0.8,0,1.4,0.6,1.4,1.4v0.9
			C188.9,367.4,188.3,368.1,187.5,368.1"/>
		<path class="st11" d="M228,318.3h15.7L220.4,295v15.7C220.4,314.9,223.8,318.3,228,318.3"/>
		<path class="st10" d="M161.2,143.8c2.7,0,4.8-2.2,4.8-4.8c0-2.7-2.2-4.8-4.8-4.8s-4.8,2.2-4.8,4.8
			C156.3,141.6,158.5,143.8,161.2,143.8"/>
		<path class="st10" d="M180.8,141.5c0,8.2-6.6,14.8-14.8,14.8c-8.2,0-14.8-6.6-14.8-14.8c0-8.2,6.6-14.8,14.8-14.8
			C174.2,126.6,180.8,133.3,180.8,141.5 M187.6,141.5c0-11.9-9.7-21.6-21.6-21.6c-11.9,0-21.6,9.7-21.6,21.6
			c0,11.9,9.7,21.6,21.6,21.6C177.9,163.1,187.6,153.4,187.6,141.5"/>
		<path class="st10" d="M246.1,143.8c2.7,0,4.8-2.2,4.8-4.8c0-2.7-2.2-4.8-4.8-4.8s-4.8,2.2-4.8,4.8
			C241.3,141.6,243.4,143.8,246.1,143.8"/>
		<path class="st10" d="M265.7,141.5c0,8.2-6.6,14.8-14.8,14.8c-8.2,0-14.8-6.6-14.8-14.8c0-8.2,6.6-14.8,14.8-14.8
			C259.1,126.6,265.7,133.3,265.7,141.5 M272.6,141.5c0-11.9-9.7-21.6-21.6-21.6c-11.9,0-21.6,9.7-21.6,21.6
			c0,11.9,9.7,21.6,21.6,21.6C262.9,163.1,272.6,153.4,272.6,141.5"/>
	</g>
	<polygon class="st12" points="75.2,653.8 75.2,653.8 75.2,657.7 85.2,657.7 85.2,653.8 	"/>
	<polygon class="st12" points="89.7,653.8 89.7,653.8 89.7,657.7 162.9,657.7 162.9,653.8 	"/>
	<polygon class="st12" points="167.4,653.8 167.4,653.8 167.4,657.7 273.4,657.7 273.4,653.8 	"/>
	<polygon class="st12" points="278.9,653.8 278.9,653.8 278.9,657.7 302.4,657.7 302.4,653.8 	"/>
	<polygon class="st12" points="308,653.8 308,653.8 308,657.7 318,657.7 318,653.8 	"/>
	<polygon class="st12" points="323.5,653.8 323.5,653.8 323.5,657.7 347,657.7 347,653.8 	"/>
	<rect x="11.5" y="665.9" class="st12" width="10" height="3.9"/>
	<polygon class="st12" points="26,665.9 26,665.9 26,669.9 99.1,669.9 99.1,665.9 	"/>
	<polygon class="st12" points="103.6,665.9 103.6,665.9 103.6,669.9 209.7,669.9 209.7,665.9 	"/>
	<polygon class="st12" points="215.2,665.9 215.2,665.9 215.2,669.9 238.7,669.9 238.7,665.9 	"/>
	<polygon class="st12" points="244.2,665.9 244.2,665.9 244.2,669.9 254.2,669.9 254.2,665.9 	"/>
	<polygon class="st12" points="259.7,665.9 259.7,665.9 259.7,669.9 283.2,669.9 283.2,665.9 	"/>
	<polygon class="st12" points="296.3,665.9 296.3,665.9 296.3,669.9 306.3,669.9 306.3,665.9 	"/>
	<polygon class="st12" points="310.8,665.9 310.8,665.9 310.8,669.9 384,669.9 384,665.9 	"/>
	<rect x="391.5" y="665.9" class="st12" width="10" height="3.9"/>
	<rect x="178.2" y="679.9" class="st12" width="10" height="3.9"/>
	<rect x="192.7" y="679.9" class="st12" width="73.2" height="3.9"/>
	<rect x="273.4" y="679.9" class="st12" width="10" height="3.9"/>
	<g>
		<defs>
			<rect id="SVGID_9_" x="11.5" y="11.3" width="390.1" height="672.5"/>
		</defs>
		<clipPath id="SVGID_10_">
			<use xlink:href="#SVGID_9_"  style="overflow:visible;"/>
		</clipPath>
		<path class="st13" d="M132.9,182.4v32.1c20.9,16.1,47.1,25.7,75.5,25.7s54.6-9.6,75.5-25.7v-32.1c-24.1,6.2-49.4,9.6-75.5,9.6
			C182.4,192,157.1,188.7,132.9,182.4"/>
	</g>
	<g>
		<defs>
			<path id="SVGID_11_" d="M208.5,192c-26.1,0-51.4-3.3-75.5-9.6v32.1c20.9,16.1,47.1,25.7,75.5,25.7c28.4,0,54.6-9.6,75.5-25.7
				v-32.1C259.8,188.7,234.5,192,208.5,192"/>
		</defs>
		<clipPath id="SVGID_12_">
			<use xlink:href="#SVGID_11_"  style="overflow:visible;"/>
		</clipPath>
		<path class="st14" d="M101.4,212.1c0,0,23.9-16.6,64.8,0c40.9,16.6,73.9,21.9,103.6-7.4c29.6-29.2,47.2,20.9,47.2,20.9
			s-27.5,22.4-37.4,19.6c-9.9-2.8-87.9,0.2-96.5,0.2s-84.4-10.4-91.6-10.4C84.3,235.1,101.4,212.1,101.4,212.1"/>
		<path class="st15" d="M171.4,160v42.3c0,0,0,10.6,10.2,10.6h9.8c0,0,10.2,0,10.2-10.6V160H171.4z"/>
		<path class="st15" d="M215.3,160v42.3c0,0,0,10.6,10.2,10.6h9.8c0,0,10.2,0,10.2-10.6V160H215.3z"/>
	</g>
</g>
</svg>
