<?xml version="1.0" encoding="utf-8"?>
<!-- Generator: Adobe Illustrator 21.0.0, SVG Export Plug-In . SVG Version: 6.00 Build 0)  -->
<svg version="1.1" id="Layer_1" xmlns="http://www.w3.org/2000/svg" xmlns:xlink="http://www.w3.org/1999/xlink" x="0px" y="0px"
	 viewBox="0 0 400 400" style="enable-background:new 0 0 400 400;" xml:space="preserve">
<style type="text/css">
	.st0{clip-path:url(#SVGID_2_);fill:#1D364C;}
	.st1{clip-path:url(#SVGID_4_);fill:#FBC02D;}
	.st2{clip-path:url(#SVGID_4_);fill:#61859B;}
	.st3{clip-path:url(#SVGID_4_);fill:#3BB2D0;}
	.st4{clip-path:url(#SVGID_6_);fill:#3BA0BA;}
	.st5{clip-path:url(#SVGID_8_);fill:#0297DB;}
	.st6{clip-path:url(#SVGID_8_);fill:#3BB2D0;}
	.st7{clip-path:url(#SVGID_8_);fill:#81D4FA;}
	.st8{clip-path:url(#SVGID_8_);fill:#DFE9F2;}
	.st9{clip-path:url(#SVGID_8_);fill:#FFFFFF;}
	.st10{clip-path:url(#SVGID_8_);fill:#4A677D;}
	.st11{clip-path:url(#SVGID_10_);fill:#61859B;}
	.st12{clip-path:url(#SVGID_10_);fill:#FEFEE6;}
</style>
<g>
	<defs>
		<rect id="SVGID_1_" x="8.6" y="7.5" width="385.4" height="385.4"/>
	</defs>
	<clipPath id="SVGID_2_">
		<use xlink:href="#SVGID_1_"  style="overflow:visible;"/>
	</clipPath>
	<path class="st0" d="M201.3,392.9c106.4,0,192.7-86.3,192.7-192.7S307.7,7.5,201.3,7.5S8.6,93.8,8.6,200.2S94.8,392.9,201.3,392.9"
		/>
</g>
<g>
	<defs>
		<circle id="SVGID_3_" cx="201.3" cy="200.2" r="192.7"/>
	</defs>
	<clipPath id="SVGID_4_">
		<use xlink:href="#SVGID_3_"  style="overflow:visible;"/>
	</clipPath>
	<path class="st1" d="M132.6,105.5c0,0-33,0-33,33V157c0,0,0,33,33,33h149.3c0,0,33,0,33-33v-18.5c0,0,0-33-33-33H132.6z"/>
	<path class="st2" d="M352.5,259.1c15,0,27.2-12.2,27.2-27.2c0-15-12.2-27.2-27.2-27.2c-15,0-27.2,12.2-27.2,27.2
		C325.4,247,337.5,259.1,352.5,259.1"/>
	<path class="st2" d="M58.4,259.1c15,0,27.2-12.2,27.2-27.2c0-15-12.2-27.2-27.2-27.2s-27.2,12.2-27.2,27.2
		C31.2,247,43.4,259.1,58.4,259.1"/>
	<path class="st3" d="M353.9,271.4v-78.8c0,0,0-33.8-27.5-46.3c-6-62.8-58.8-111.9-123.1-111.9C137,34.4,83,86.3,79.7,151.7
		c-10.3,7.2-19.2,19.6-19.2,40.8v78.8c0,0,0,50.9,50.9,50.9H303C303,322.3,353.9,322.3,353.9,271.4"/>
</g>
<g>
	<defs>
		<path id="SVGID_5_" d="M79.7,151.7c-10.3,7.2-19.2,19.6-19.2,40.8v78.8c0,0,0,50.9,50.9,50.9H303c0,0,50.9,0,50.9-50.9v-78.8
			c0,0,0-33.8-27.5-46.3c-6-62.8-58.8-111.9-123.1-111.9C137,34.4,83,86.4,79.7,151.7"/>
	</defs>
	<clipPath id="SVGID_6_">
		<use xlink:href="#SVGID_5_"  style="overflow:visible;"/>
	</clipPath>
	<path class="st4" d="M102.1,327.9c0,0-37.3-201.4,47.2-303C233.9-76.5,68,34.4,68,34.4L-1.6,132l-25.8,104.6v85.6L85.1,343
		L102.1,327.9z"/>
</g>
<g>
	<defs>
		<circle id="SVGID_7_" cx="201.3" cy="200.2" r="192.7"/>
	</defs>
	<clipPath id="SVGID_8_">
		<use xlink:href="#SVGID_7_"  style="overflow:visible;"/>
	</clipPath>
	<path class="st5" d="M66.5,369.7c0,0-13.4,0-13.4,13.4v6.6c0,0,0,13.4,13.4,13.4h267.1c0,0,13.4,0,13.4-13.4v-6.6
		c0,0,0-13.4-13.4-13.4H66.5z"/>
	<path class="st6" d="M37.5,343c0,0-20.1,0-20.1,20.1v132.3c0,0,0,20.1,20.1,20.1h6.2c0,0,20.1,0,20.1-20.1V363.1
		c0,0,0-20.1-20.1-20.1H37.5z"/>
	<path class="st6" d="M360.5,343c0,0-20.1,0-20.1,20.1v132.3c0,0,0,20.1,20.1,20.1h6.2c0,0,20.1,0,20.1-20.1V363.1
		c0,0,0-20.1-20.1-20.1H360.5z"/>
	<path class="st6" d="M101.2,337.2c0,0-23.8,0-23.8,23.8v181.6h250.1V361c0,0,0-23.8-23.8-23.8H101.2z"/>
	<path class="st7" d="M219.6,369.7h-52.9c-5,0-9,4-9,9v102.5c0,5,4,9,9,9h71.5c5,0,9-4,9-9v-83.9L219.6,369.7z"/>
	<path class="st8" d="M228.6,397.3h18.6l-27.6-27.6v18.6C219.6,393.3,223.6,397.3,228.6,397.3"/>
	<path class="st9" d="M149.5,185.9c3.2,0,5.7-2.6,5.7-5.7c0-3.2-2.6-5.7-5.7-5.7s-5.7,2.6-5.7,5.7
		C143.8,183.4,146.4,185.9,149.5,185.9"/>
	<path class="st9" d="M172.8,183.2c0,9.7-7.8,17.5-17.5,17.5c-9.7,0-17.5-7.8-17.5-17.5c0-9.7,7.8-17.5,17.5-17.5
		C164.9,165.7,172.8,173.5,172.8,183.2 M180.8,183.2c0-14.1-11.5-25.6-25.6-25.6c-14.1,0-25.6,11.5-25.6,25.6s11.5,25.6,25.6,25.6
		C169.4,208.8,180.8,197.3,180.8,183.2"/>
	<path class="st9" d="M250,185.9c3.2,0,5.7-2.6,5.7-5.7c0-3.2-2.6-5.7-5.7-5.7c-3.2,0-5.7,2.6-5.7,5.7
		C244.3,183.4,246.8,185.9,250,185.9"/>
	<path class="st9" d="M273.2,183.2c0,9.7-7.8,17.5-17.5,17.5c-9.7,0-17.5-7.8-17.5-17.5c0-9.7,7.8-17.5,17.5-17.5
		C265.4,165.7,273.2,173.5,273.2,183.2 M281.3,183.2c0-14.1-11.5-25.6-25.6-25.6c-14.1,0-25.6,11.5-25.6,25.6s11.5,25.6,25.6,25.6
		C269.8,208.8,281.3,197.3,281.3,183.2"/>
	<path class="st10" d="M116.2,236.7v38c24.7,19,55.7,30.3,89.3,30.3s64.6-11.3,89.3-30.3v-38c-28.5,7.4-58.5,11.3-89.3,11.3
		C174.6,248,144.7,244.1,116.2,236.7"/>
</g>
<g>
	<defs>
		<path id="SVGID_9_" d="M205.5,248c-30.8,0-60.8-3.9-89.3-11.3v38c24.7,19,55.7,30.3,89.3,30.3s64.6-11.3,89.3-30.3v-38
			C266.2,244.1,236.3,248,205.5,248"/>
	</defs>
	<clipPath id="SVGID_10_">
		<use xlink:href="#SVGID_9_"  style="overflow:visible;"/>
	</clipPath>
	<path class="st11" d="M87.9,273.8c0,0,28.3-19.6,76.7,0c48.4,19.6,87.4,25.9,122.4-8.7c35-34.6,55.9,24.7,55.9,24.7
		s-32.6,26.5-44.2,23.2c-11.6-3.3-103.9,0.3-114.1,0.3c-10.1,0-99.8-12.3-108.4-12.3C67.7,301,87.9,273.8,87.9,273.8"/>
	<path class="st12" d="M161.7,210.1v50c0,0,0,12.5,12,12.5h11.6c0,0,12,0,12-12.5v-50H161.7z"/>
	<path class="st12" d="M213.6,210.1v50c0,0,0,12.5,12,12.5h11.6c0,0,12,0,12-12.5v-50H213.6z"/>
</g>
</svg>
