<?xml version="1.0" encoding="utf-8"?>
<!-- Generator: Adobe Illustrator 21.0.2, SVG Export Plug-In . SVG Version: 6.00 Build 0)  -->
<svg version="1.1" id="Layer_1" xmlns="http://www.w3.org/2000/svg" xmlns:xlink="http://www.w3.org/1999/xlink" x="0px" y="0px"
	 viewBox="0 0 448 696" style="enable-background:new 0 0 448 696;" xml:space="preserve">
<style type="text/css">
	.st0{fill:#29B5F5;}
	.st1{clip-path:url(#SVGID_2_);fill:#0296DA;}
	.st2{clip-path:url(#SVGID_2_);fill:#1477AE;}
	.st3{clip-path:url(#SVGID_2_);fill:#80D3F9;}
	.st4{clip-path:url(#SVGID_2_);fill:#0A7DB9;}
	.st5{clip-path:url(#SVGID_2_);fill:#FABF2D;}
	.st6{clip-path:url(#SVGID_2_);fill:#29B5F5;}
	.st7{fill:#FFFFFF;}
	.st8{clip-path:url(#SVGID_4_);fill:#FFFFFF;}
	.st9{clip-path:url(#SVGID_4_);fill:#DEE8F1;}
</style>
<rect x="144.4" y="413.5" class="st0" width="28.6" height="41.3"/>
<rect x="269.1" y="413.5" class="st0" width="28.6" height="41.3"/>
<g>
	<defs>
		<rect id="SVGID_1_" x="3.8" y="4.7" width="436.5" height="685.3"/>
	</defs>
	<clipPath id="SVGID_2_">
		<use xlink:href="#SVGID_1_"  style="overflow:visible;"/>
	</clipPath>
	<path class="st1" d="M92.7,254.8c0,0-12.7,0-12.7,12.7v6.2c0,0,0,12.7,12.7,12.7h252.8c0,0,12.7,0,12.7-12.7v-6.2
		c0,0,0-12.7-12.7-12.7H92.7z"/>
	<path class="st2" d="M65.3,229.5c0,0-19.1,0-19.1,19.1v125.2c0,0,0,19.1,19.1,19.1h5.9c0,0,19.1,0,19.1-19.1V248.5
		c0,0,0-19.1-19.1-19.1H65.3z"/>
	<path class="st2" d="M371,229.5c0,0-19.1,0-19.1,19.1v125.2c0,0,0,19.1,19.1,19.1h5.9c0,0,19.1,0,19.1-19.1V248.5
		c0,0,0-19.1-19.1-19.1H371z"/>
	<path class="st3" d="M156.9,448.8c0,0-28.6,0-28.6,28.6v111.8c0,0,0,28.6,28.6,28.6h3.6c0,0,28.6,0,28.6-28.6V477.4
		c0,0,0-28.6-28.6-28.6H156.9z"/>
	<path class="st4" d="M126.6,503c0,0-12.7,0-12.7,12.7v6.3c0,0,0,12.7,12.7,12.7h64.1c0,0,12.7,0,12.7-12.7v-6.3
		c0,0,0-12.7-12.7-12.7H126.6z"/>
	<path class="st3" d="M281.6,448.8c0,0-28.6,0-28.6,28.6v111.8c0,0,0,28.6,28.6,28.6h3.6c0,0,28.6,0,28.6-28.6V477.4
		c0,0,0-28.6-28.6-28.6H281.6z"/>
	<path class="st4" d="M251.4,503c0,0-12.7,0-12.7,12.7v6.3c0,0,0,12.7,12.7,12.7h64.1c0,0,12.7,0,12.7-12.7v-6.3
		c0,0,0-12.7-12.7-12.7H251.4z"/>
	<path class="st5" d="M155.2,4.7c0,0-31.2,0-31.2,31.2v17.5c0,0,0,31.2,31.2,31.2h141.3c0,0,31.2,0,31.2-31.2V35.9
		c0,0,0-31.2-31.2-31.2H155.2z"/>
	<path class="st2" d="M363.4,150.1c14.2,0,25.7-11.5,25.7-25.7c0-14.2-11.5-25.7-25.7-25.7c-14.2,0-25.7,11.5-25.7,25.7
		C337.7,138.6,349.2,150.1,363.4,150.1"/>
	<path class="st2" d="M85,150.1c14.2,0,25.7-11.5,25.7-25.7c0-14.2-11.5-25.7-25.7-25.7s-25.7,11.5-25.7,25.7
		C59.3,138.6,70.8,150.1,85,150.1"/>
	<path class="st6" d="M135.2,38.9c0,0-48.2,0-48.2,48.2v74.6c0,0,0,48.2,48.2,48.2h181.3c0,0,48.2,0,48.2-48.2V87
		c0,0,0-48.2-48.2-48.2H135.2z"/>
	<path class="st2" d="M125.5,224c0,0-22.5,0-22.5,22.5v171.9h236.8V246.5c0,0,0-22.5-22.5-22.5H125.5z"/>
	<path class="st2" d="M158.7,587.5c-25.2,0-45.7,20-46.6,45h93.2C204.4,607.5,183.9,587.5,158.7,587.5"/>
	<path class="st2" d="M283.4,587.5c-25.2,0-45.7,20-46.6,45H330C329.1,607.5,308.6,587.5,283.4,587.5"/>
	<path class="st3" d="M237.5,254.8h-50c-4.7,0-8.5,3.8-8.5,8.5v97.1c0,4.7,3.8,8.5,8.5,8.5h67.7c4.7,0,8.5-3.8,8.5-8.5v-79.4
		L237.5,254.8z"/>
</g>
<rect x="212.3" y="308.8" class="st7" width="34" height="4.1"/>
<rect x="212.3" y="320.6" class="st7" width="34" height="4.1"/>
<rect x="212.3" y="332.5" class="st7" width="34" height="4.1"/>
<g>
	<defs>
		<rect id="SVGID_3_" x="3.8" y="4.7" width="436.5" height="685.3"/>
	</defs>
	<clipPath id="SVGID_4_">
		<use xlink:href="#SVGID_3_"  style="overflow:visible;"/>
	</clipPath>
	<path class="st8" d="M200.8,312.9h-1.7c-0.8,0-1.5-0.7-1.5-1.5v-1.1c0-0.8,0.7-1.5,1.5-1.5h1.7c0.8,0,1.5,0.7,1.5,1.5v1.1
		C202.3,312.2,201.6,312.9,200.8,312.9"/>
	<path class="st8" d="M200.8,324.8h-1.7c-0.8,0-1.5-0.7-1.5-1.5v-1.1c0-0.8,0.7-1.5,1.5-1.5h1.7c0.8,0,1.5,0.7,1.5,1.5v1.1
		C202.3,324.1,201.6,324.8,200.8,324.8"/>
	<path class="st8" d="M200.8,336.6h-1.7c-0.8,0-1.5-0.7-1.5-1.5V334c0-0.8,0.7-1.5,1.5-1.5h1.7c0.8,0,1.5,0.7,1.5,1.5v1.1
		C202.3,335.9,201.6,336.6,200.8,336.6"/>
	<path class="st9" d="M246.1,280.9h17.6l-26.1-26.1v17.6C237.5,277.1,241.4,280.9,246.1,280.9"/>
	<path class="st8" d="M163.9,99.7c4.1,0,7.5-3.3,7.5-7.5c0-4.1-3.3-7.5-7.5-7.5c-4.1,0-7.5,3.3-7.5,7.5
		C156.5,96.3,159.8,99.7,163.9,99.7"/>
	<path class="st8" d="M194.3,96.1c0,12.6-10.3,22.9-22.9,22.9c-12.6,0-22.9-10.3-22.9-22.9c0-12.6,10.3-22.9,22.9-22.9
		C184,73.2,194.3,83.4,194.3,96.1 M204.8,96.1c0-18.5-15-33.4-33.4-33.4c-18.5,0-33.4,15-33.4,33.4c0,18.5,15,33.4,33.4,33.4
		C189.9,129.5,204.8,114.5,204.8,96.1"/>
	<path class="st8" d="M269.5,99.7c4.1,0,7.5-3.3,7.5-7.5c0-4.1-3.3-7.5-7.5-7.5c-4.1,0-7.5,3.3-7.5,7.5
		C262.1,96.3,265.4,99.7,269.5,99.7"/>
	<path class="st8" d="M299.9,96.1c0,12.6-10.3,22.9-22.9,22.9c-12.6,0-22.9-10.3-22.9-22.9c0-12.6,10.3-22.9,22.9-22.9
		C289.6,73.2,299.9,83.4,299.9,96.1 M310.4,96.1c0-18.5-15-33.4-33.4-33.4s-33.4,15-33.4,33.4c0,18.5,15,33.4,33.4,33.4
		S310.4,114.5,310.4,96.1"/>
	<path class="st8" d="M166,163c1.7,2.1,3.6,4.1,5.5,5.9v-12.4c-1.9-0.8-3.7-1.6-5.5-2.5V163z M177.1,173.9c3.1,2.4,6.4,4.6,9.9,6.5
		v-18.4c-3.3-0.9-6.6-2-9.9-3.1V173.9z M192.6,183.1c3.2,1.4,6.5,2.5,9.9,3.5v-21.4c-3.3-0.5-6.6-1.1-9.9-1.8V183.1z M208.2,187.8
		c3.2,0.6,6.5,1,9.9,1.2v-22.5c-3.3-0.1-6.6-0.3-9.9-0.6V187.8z M223.7,189c3.4-0.1,6.7-0.5,9.9-1v-22.1c-3.3,0.3-6.6,0.5-9.9,0.6
		V189z M239.2,186.8c3.4-0.9,6.7-2,9.9-3.3v-20c-3.3,0.7-6.5,1.3-9.9,1.8V186.8z M264.6,159.1c-3.2,1.1-6.5,2.2-9.9,3.1v18.7
		c3.5-1.8,6.8-3.9,9.9-6.3V159.1z M276.7,163v-8.9c-2.1,1-4.3,1.9-6.5,2.8v12.9C272.5,167.7,274.7,165.4,276.7,163"/>
</g>
<polygon class="st0" points="75.1,656.3 75.1,656.3 75.1,660.7 86.3,660.7 86.3,656.3 "/>
<polygon class="st0" points="91.3,656.3 91.3,656.3 91.3,660.7 173.2,660.7 173.2,656.3 "/>
<polygon class="st0" points="178.2,656.3 178.2,656.3 178.2,660.7 296.9,660.7 296.9,656.3 "/>
<polygon class="st0" points="303.1,656.3 303.1,656.3 303.1,660.7 329.4,660.7 329.4,656.3 "/>
<polygon class="st0" points="335.6,656.3 335.6,656.3 335.6,660.7 346.8,660.7 346.8,656.3 "/>
<polygon class="st0" points="352.9,656.3 352.9,656.3 352.9,660.7 379.2,660.7 379.2,656.3 "/>
<rect x="3.8" y="669.9" class="st0" width="11.2" height="4.4"/>
<polygon class="st0" points="20,669.9 20,669.9 20,674.3 101.9,674.3 101.9,669.9 "/>
<polygon class="st0" points="106.9,669.9 106.9,669.9 106.9,674.3 225.6,674.3 225.6,669.9 "/>
<polygon class="st0" points="231.7,669.9 231.7,669.9 231.7,674.3 258,674.3 258,669.9 "/>
<polygon class="st0" points="264.2,669.9 264.2,669.9 264.2,674.3 275.4,674.3 275.4,669.9 "/>
<polygon class="st0" points="281.6,669.9 281.6,669.9 281.6,674.3 307.9,674.3 307.9,669.9 "/>
<polygon class="st0" points="322.5,669.9 322.5,669.9 322.5,674.3 333.7,674.3 333.7,669.9 "/>
<polygon class="st0" points="338.8,669.9 338.8,669.9 338.8,674.3 420.6,674.3 420.6,669.9 "/>
<rect x="429.1" y="669.9" class="st0" width="11.2" height="4.4"/>
<rect x="190.3" y="685.6" class="st0" width="11.2" height="4.4"/>
<rect x="206.6" y="685.6" class="st0" width="81.9" height="4.4"/>
<rect x="296.9" y="685.6" class="st0" width="11.2" height="4.4"/>
</svg>
