<?xml version="1.0" encoding="utf-8"?>
<!-- Generator: Adobe Illustrator 21.0.2, SVG Export Plug-In . SVG Version: 6.00 Build 0)  -->
<svg version="1.1" id="Layer_1" xmlns="http://www.w3.org/2000/svg" xmlns:xlink="http://www.w3.org/1999/xlink" x="0px" y="0px"
	 viewBox="0 0 309 400" style="enable-background:new 0 0 309 400;" xml:space="preserve">
<style type="text/css">
	.st0{clip-path:url(#SVGID_2_);fill:#FBC02D;}
	.st1{clip-path:url(#SVGID_4_);fill:#F29312;}
	.st2{clip-path:url(#SVGID_6_);fill:#FBC02D;}
</style>
<g>
	<defs>
		<rect id="SVGID_1_" x="8" y="7.7" width="294.5" height="385.3"/>
	</defs>
	<clipPath id="SVGID_2_">
		<use xlink:href="#SVGID_1_"  style="overflow:visible;"/>
	</clipPath>
	<path class="st0" d="M302.5,155c0-81.3-65.9-147.2-147.2-147.2C73.9,7.7,8,73.6,8,155c0,58.8,34.5,109.5,84.3,133.1
		c3,4.3,5.8,10.4,5.9,18.2c0.4,18-2.5,21.7-4.1,28.3c-1.6,6.6-9.8,24.5,6.2,26.7c12.3,1.6,10.3-16.4,7.4-24.2
		c-2.6-7.1-15.4-29.5,7.1-40.6c12.9,3.7,26.5,5.7,40.5,5.7c38.7,0,73.9-14.9,100.1-39.3c3.3,0.5,7.7,2.8,6.9,11.4
		c-1.2,13.5-16.3,36.9,2.1,39.8c13.1,2.1,11.9-15.2,8.2-23.8c-3-7.1-8.6-22-3.3-42.2C290,222.8,302.5,190.3,302.5,155"/>
</g>
<g>
	<defs>
		<path id="SVGID_3_" d="M155.2,7.7C73.9,7.7,8,73.6,8,155c0,58.8,34.5,109.5,84.3,133.1c3,4.3,5.8,10.4,5.9,18.2
			c0.4,18-2.5,21.7-4.1,28.3c-1.6,6.6-9.8,24.5,6.2,26.7c12.3,1.6,10.3-16.4,7.4-24.2c-2.6-7.1-15.4-29.5,7.1-40.6
			c12.9,3.7,26.5,5.7,40.5,5.7c38.7,0,73.9-14.9,100.1-39.3c3.3,0.5,7.7,2.8,6.9,11.4c-1.2,13.5-16.3,36.9,2,39.8
			c13.1,2.1,11.9-15.2,8.2-23.8c-3-7.1-8.6-22-3.3-42.2c20.8-25.4,33.3-57.8,33.3-93.2C302.5,73.6,236.6,7.7,155.2,7.7z"/>
	</defs>
	<clipPath id="SVGID_4_">
		<use xlink:href="#SVGID_3_"  style="overflow:visible;"/>
	</clipPath>
	<path class="st1" d="M22.3,64.3c0,0,65.6-18.9,64.8,18.5s0,50.4,22.1,54.5c22.1,4.1,36.3-18.9,32.5-28.9
		c-3.8-10,1.9-27.7,23.3-25.6c21.3,2.1,20.5,24.2,14.8,37.3c-5.7,13.1,6.6,36.1,28.7,28.3c22.1-7.8,25.4-36.5,18-64.4
		c-7.4-27.9-52.5-31.2-71.4-48.4c-18.9-17.2-9-48.4-9-48.4l-29.5,5.3L54.3,19.2L16.6,68.6L22.3,64.3z"/>
	<path class="st1" d="M-3.9,173c0,0,16.4-7,33.6,11.1c17.2,18,25.4,23,43.5,8.4c18-14.6,36.1-0.7,41,8.5
		c4.9,9.3,10.7,29.8-14.8,38.8C74,248.9,74,266.1,74,284.1c0,18-2.5,20.5-2.5,20.5l-55-36.1L-11.3,212L-3.9,173z"/>
	<path class="st1" d="M305.3,175c0,0-22.1-1.2-36.9,17.4c-14.8,18.7-32.3,14.6-38.3-3.1c-6-17.7-34.7-25-42.1-9.4
		c-7.4,15.6-15.9,35.3,13.1,46.8c29,11.4,35,14.8,29,30.3c-6,15.6,5.7,60.3,11.2,75.9c5.5,15.6,83.7-49.6,83.7-49.6
		s-2.5-84.7-2.5-87.8s-5.7-23.9-5.7-23.9L305.3,175z"/>
</g>
<g>
	<defs>
		<rect id="SVGID_5_" x="8" y="7.7" width="294.5" height="385.3"/>
	</defs>
	<clipPath id="SVGID_6_">
		<use xlink:href="#SVGID_5_"  style="overflow:visible;"/>
	</clipPath>
	<path class="st2" d="M45.5,278c0,0,19.1,32.8,1.9,35.3C29.4,315.8,34.7,287.8,45.5,278"/>
	<path class="st2" d="M155.6,357.6c0,0,19.1,32.8,1.9,35.3C139.6,395.4,144.8,367.4,155.6,357.6"/>
	<path class="st2" d="M210.6,324.8c0,0,19.1,32.8,1.9,35.3C194.6,362.6,199.8,334.6,210.6,324.8"/>
</g>
</svg>
