<?xml version="1.0" encoding="utf-8"?>
<!-- Generator: Adobe Illustrator 21.0.0, SVG Export Plug-In . SVG Version: 6.00 Build 0)  -->
<svg version="1.1" id="Layer_1" xmlns="http://www.w3.org/2000/svg" xmlns:xlink="http://www.w3.org/1999/xlink" x="0px" y="0px"
	 viewBox="0 0 141 193" style="enable-background:new 0 0 141 193;" xml:space="preserve">
<style type="text/css">
	.st0{fill:#C1C3C5;}
	.st1{clip-path:url(#SVGID_2_);fill:#E1E1E1;}
	.st2{clip-path:url(#SVGID_2_);fill:#FFFFFF;}
	.st3{fill:#FFFFFF;}
	.st4{clip-path:url(#SVGID_4_);fill:#FABF2D;}
	.st5{clip-path:url(#SVGID_4_);fill:#FBFBFB;}
	.st6{clip-path:url(#SVGID_4_);fill:#E1E1E1;}
	.st7{clip-path:url(#SVGID_4_);fill:#D0D2D3;}
	.st8{clip-path:url(#SVGID_4_);fill:#FFFFFF;}
	.st9{clip-path:url(#SVGID_6_);fill:#FFFFFF;}
	.st10{clip-path:url(#SVGID_6_);fill:#C5C7C9;}
	.st11{clip-path:url(#SVGID_6_);fill:#D0D2D3;}
	.st12{clip-path:url(#SVGID_8_);fill:#FFFFFF;}
	.st13{clip-path:url(#SVGID_8_);fill:none;stroke:#FFFFFF;stroke-width:1.26;}
	.st14{clip-path:url(#SVGID_8_);fill:#E1E1E1;}
	.st15{clip-path:url(#SVGID_8_);fill:none;stroke:#FFFFFF;stroke-width:1.647;}
</style>
<g>
	<rect x="63.9" y="120.4" class="st0" width="6.9" height="9.9"/>
	<rect x="93.9" y="120.4" class="st0" width="6.9" height="9.9"/>
	<g>
		<defs>
			<rect id="SVGID_1_" x="6.9" y="6" width="128.1" height="180.9"/>
		</defs>
		<clipPath id="SVGID_2_">
			<use xlink:href="#SVGID_1_"  style="overflow:visible;"/>
		</clipPath>
		<path class="st1" d="M66.9,128.9c0,0-6.9,0-6.9,6.9v26.9c0,0,0,6.9,6.9,6.9h0.9c0,0,6.9,0,6.9-6.9v-26.9c0,0,0-6.9-6.9-6.9H66.9z"
			/>
		<path class="st2" d="M59.7,141.9c0,0-3.1,0-3.1,3.1v1.5c0,0,0,3.1,3.1,3.1h15.4c0,0,3.1,0,3.1-3.1V145c0,0,0-3.1-3.1-3.1H59.7z"/>
		<path class="st1" d="M96.9,128.9c0,0-6.9,0-6.9,6.9v26.9c0,0,0,6.9,6.9,6.9h0.9c0,0,6.9,0,6.9-6.9v-26.9c0,0,0-6.9-6.9-6.9H96.9z"
			/>
		<path class="st2" d="M89.6,141.9c0,0-3.1,0-3.1,3.1v1.5c0,0,0,3.1,3.1,3.1H105c0,0,3.1,0,3.1-3.1V145c0,0,0-3.1-3.1-3.1H89.6z"/>
		<path class="st2" d="M67.4,162.2c-6.1,0-11,4.8-11.2,10.8h22.4C78.3,167,73.4,162.2,67.4,162.2"/>
		<path class="st2" d="M97.3,162.2c-6.1,0-11,4.8-11.2,10.8h22.4C108.3,167,103.4,162.2,97.3,162.2"/>
	</g>
	<polygon class="st3" points="47.3,178.8 47.3,178.8 47.3,179.8 50,179.8 50,178.8 	"/>
	<polygon class="st3" points="51.2,178.8 51.2,178.8 51.2,179.8 70.9,179.8 70.9,178.8 	"/>
	<polygon class="st3" points="72.1,178.8 72.1,178.8 72.1,179.8 100.6,179.8 100.6,178.8 	"/>
	<polygon class="st3" points="102,178.8 102,178.8 102,179.8 108.4,179.8 108.4,178.8 	"/>
	<polygon class="st3" points="109.8,178.8 109.8,178.8 109.8,179.8 112.5,179.8 112.5,178.8 	"/>
	<polygon class="st3" points="114,178.8 114,178.8 114,179.8 120.3,179.8 120.3,178.8 	"/>
	<polygon class="st3" points="30.2,182 30.2,182 30.2,183.1 32.8,183.1 32.8,182 	"/>
	<polygon class="st3" points="34.1,182 34.1,182 34.1,183.1 53.7,183.1 53.7,182 	"/>
	<polygon class="st3" points="54.9,182 54.9,182 54.9,183.1 83.4,183.1 83.4,182 	"/>
	<polygon class="st3" points="84.9,182 84.9,182 84.9,183.1 91.2,183.1 91.2,182 	"/>
	<polygon class="st3" points="92.7,182 92.7,182 92.7,183.1 95.4,183.1 95.4,182 	"/>
	<polygon class="st3" points="96.9,182 96.9,182 96.9,183.1 103.2,183.1 103.2,182 	"/>
	<polygon class="st3" points="106.7,182 106.7,182 106.7,183.1 109.4,183.1 109.4,182 	"/>
	<polygon class="st3" points="110.6,182 110.6,182 110.6,183.1 130.3,183.1 130.3,182 	"/>
	<rect x="132.3" y="182" class="st3" width="2.7" height="1.1"/>
	<rect x="75" y="185.8" class="st3" width="2.7" height="1.1"/>
	<rect x="78.9" y="185.8" class="st3" width="19.7" height="1.1"/>
	<rect x="100.6" y="185.8" class="st3" width="2.7" height="1.1"/>
	<g>
		<defs>
			<rect id="SVGID_3_" x="6.9" y="6" width="128.1" height="180.9"/>
		</defs>
		<clipPath id="SVGID_4_">
			<use xlink:href="#SVGID_3_"  style="overflow:visible;"/>
		</clipPath>
		<path class="st4" d="M66.8,22.2c0,0-7.5,0-7.5,7.5v4.2c0,0,0,7.5,7.5,7.5h33.9c0,0,7.5,0,7.5-7.5v-4.2c0,0,0-7.5-7.5-7.5H66.8z"/>
		<path class="st5" d="M116.8,57.1c3.4,0,6.2-2.8,6.2-6.2c0-3.4-2.8-6.2-6.2-6.2c-3.4,0-6.2,2.8-6.2,6.2
			C110.6,54.3,113.4,57.1,116.8,57.1"/>
		<path class="st5" d="M49.9,57.1c3.4,0,6.2-2.8,6.2-6.2c0-3.4-2.8-6.2-6.2-6.2c-3.4,0-6.2,2.8-6.2,6.2
			C43.7,54.3,46.5,57.1,49.9,57.1"/>
		<path class="st6" d="M117.1,59.9V42c0,0,0-7.7-6.3-10.5C109.5,17.2,97.4,6,82.8,6c-15,0-27.3,11.8-28.1,26.7
			c-2.3,1.6-4.4,4.4-4.4,9.3v17.9c0,0,0,11.6,11.6,11.6h43.5C105.5,71.4,117.1,71.4,117.1,59.9"/>
		<path class="st7" d="M51.7,82.2c0,0-3.1,0-3.1,3.1v1.5c0,0,0,3.1,3.1,3.1h65.1c0,0,3.1,0,3.1-3.1v-1.5c0,0,0-3.1-3.1-3.1H51.7z"/>
		<path class="st6" d="M44.9,76.2c0,0-4.3,0-4.3,4.3v30.6c0,0,0,4.3,4.3,4.3h1.9c0,0,4.3,0,4.3-4.3V80.5c0,0,0-4.3-4.3-4.3H44.9z"/>
		<path class="st6" d="M118.3,76.2c0,0-4.3,0-4.3,4.3v30.6c0,0,0,4.3,4.3,4.3h1.9c0,0,4.3,0,4.3-4.3V80.5c0,0,0-4.3-4.3-4.3H118.3z"
			/>
		<path class="st8" d="M59.6,74.8c0,0-5.4,0-5.4,5.4v41.3h56.9V80.2c0,0,0-5.4-5.4-5.4H59.6z"/>
		<path class="st6" d="M86.5,82.2h-12c-1.1,0-2,0.9-2,2v23.3c0,1.1,0.9,2,2,2h16.2c1.1,0,2-0.9,2-2V88.5L86.5,82.2z"/>
	</g>
	<rect x="80.5" y="95.2" class="st3" width="8.2" height="1"/>
	<rect x="80.5" y="98.1" class="st3" width="8.2" height="1"/>
	<rect x="80.5" y="100.9" class="st3" width="8.2" height="1"/>
	<g>
		<defs>
			<rect id="SVGID_5_" x="6.9" y="6" width="128.1" height="180.9"/>
		</defs>
		<clipPath id="SVGID_6_">
			<use xlink:href="#SVGID_5_"  style="overflow:visible;"/>
		</clipPath>
		<path class="st9" d="M77.7,96.2h-0.4c-0.2,0-0.4-0.2-0.4-0.4v-0.3c0-0.2,0.2-0.4,0.4-0.4h0.4c0.2,0,0.4,0.2,0.4,0.4v0.3
			C78.1,96,77.9,96.2,77.7,96.2"/>
		<path class="st9" d="M77.7,99h-0.4c-0.2,0-0.4-0.2-0.4-0.4v-0.3c0-0.2,0.2-0.4,0.4-0.4h0.4c0.2,0,0.4,0.2,0.4,0.4v0.3
			C78.1,98.9,77.9,99,77.7,99"/>
		<path class="st9" d="M77.7,101.9h-0.4c-0.2,0-0.4-0.2-0.4-0.4v-0.3c0-0.2,0.2-0.4,0.4-0.4h0.4c0.2,0,0.4,0.2,0.4,0.4v0.3
			C78.1,101.7,77.9,101.9,77.7,101.9"/>
		<path class="st10" d="M88.6,88.5h4.2l-6.3-6.3v4.2C86.5,87.6,87.5,88.5,88.6,88.5"/>
		<path class="st11" d="M72.2,52.2c0,0-4.6,0-4.6,4.6v4.7c0,0,0,4.6,4.6,4.6h22.3c0,0,4.6,0,4.6-4.6v-4.7c0,0,0-4.6-4.6-4.6H72.2z"
			/>
	</g>
	<polygon class="st3" points="69.4,44.8 81,31.8 87.8,38.3 98.5,31.8 86.5,44.8 79.9,38.9 	"/>
	<g>
		<defs>
			<rect id="SVGID_7_" x="6.9" y="6" width="128.1" height="180.9"/>
		</defs>
		<clipPath id="SVGID_8_">
			<use xlink:href="#SVGID_7_"  style="overflow:visible;"/>
		</clipPath>
		<path class="st12" d="M11.6,74c1.7,1.2,3.8,2,6,2c5.6,0,10.2-4.6,10.2-10.2c0-5.6-4.6-10.2-10.2-10.2S7.4,60.2,7.4,65.8
			c0,2.2,0.7,4.2,1.8,5.8L7.4,76L11.6,74z"/>
		<path class="st13" d="M11.6,74c1.7,1.2,3.8,2,6,2c5.6,0,10.2-4.6,10.2-10.2c0-5.6-4.6-10.2-10.2-10.2S7.4,60.2,7.4,65.8
			c0,2.2,0.7,4.2,1.8,5.8L7.4,76L11.6,74z"/>
		<path class="st14" d="M38.7,65.9c1.6-2.2,2.6-4.9,2.6-7.9c0-7.4-6-13.4-13.4-13.4c-7.4,0-13.4,6-13.4,13.4c0,7.4,6,13.4,13.4,13.4
			c2.8,0,5.5-0.9,7.6-2.4l5.7,2.4L38.7,65.9z"/>
		<path class="st15" d="M38.7,65.9c1.6-2.2,2.6-4.9,2.6-7.9c0-7.4-6-13.4-13.4-13.4c-7.4,0-13.4,6-13.4,13.4c0,7.4,6,13.4,13.4,13.4
			c2.8,0,5.5-0.9,7.6-2.4l5.7,2.4L38.7,65.9z"/>
	</g>
</g>
</svg>
