<?xml version="1.0" encoding="utf-8"?>
<!-- Generator: Adobe Illustrator 21.0.2, SVG Export Plug-In . SVG Version: 6.00 Build 0)  -->
<svg version="1.1" id="Layer_1" xmlns="http://www.w3.org/2000/svg" xmlns:xlink="http://www.w3.org/1999/xlink" x="0px" y="0px"
	 viewBox="0 0 400 266" style="enable-background:new 0 0 400 266;" xml:space="preserve">
<style type="text/css">
	.st0{clip-path:url(#SVGID_2_);fill:none;stroke:#FDFDE5;stroke-width:2;}
	.st1{clip-path:url(#SVGID_2_);fill:#FFFFFF;}
	.st2{clip-path:url(#SVGID_2_);fill:none;stroke:#FDFDE5;}
	.st3{fill:#FDFDE5;}
</style>
<g>
	<g>
		<defs>
			<rect id="SVGID_1_" x="5.5" y="11.5" width="388.4" height="247.5"/>
		</defs>
		<clipPath id="SVGID_2_">
			<use xlink:href="#SVGID_1_"  style="overflow:visible;"/>
		</clipPath>
		<path class="st0" d="M118.2,40.7v5.9H290v-5.9c0,0,0-27.8-27.8-27.8H146C146,12.9,118.2,12.9,118.2,40.7z"/>
		<path class="st0" d="M76.1,99.9c-12.6,0-22.9,10.3-22.9,22.9s10.3,22.9,22.9,22.9V99.9z"/>
		<path class="st0" d="M323.3,99.9c12.6,0,22.9,10.3,22.9,22.9s-10.3,22.9-22.9,22.9V99.9z"/>
		<path class="st0" d="M119.1,46.7c0,0-42.9,0-42.9,42.9v66.4c0,0,0,42.9,42.9,42.9h161.3c0,0,42.9,0,42.9-42.9V89.6
			c0,0,0-42.9-42.9-42.9H119.1z"/>
		<path class="st1" d="M144.7,100.8c3.7,0,6.6-3,6.6-6.6c0-3.7-3-6.6-6.6-6.6c-3.7,0-6.6,3-6.6,6.6
			C138.1,97.8,141.1,100.8,144.7,100.8"/>
		<circle class="st2" cx="144.7" cy="94.2" r="6.6"/>
		<path class="st1" d="M171.7,97.6c0,11.3-9.1,20.4-20.4,20.4c-11.3,0-20.4-9.1-20.4-20.4s9.1-20.4,20.4-20.4
			C162.6,77.2,171.7,86.3,171.7,97.6 M181.1,97.6c0-16.4-13.3-29.7-29.7-29.7s-29.7,13.3-29.7,29.7s13.3,29.7,29.7,29.7
			S181.1,114,181.1,97.6"/>
		<path class="st2" d="M171.7,97.6c0,11.3-9.1,20.4-20.4,20.4c-11.3,0-20.4-9.1-20.4-20.4s9.1-20.4,20.4-20.4
			C162.6,77.2,171.7,86.3,171.7,97.6z M181.1,97.6c0-16.4-13.3-29.7-29.7-29.7s-29.7,13.3-29.7,29.7s13.3,29.7,29.7,29.7
			S181.1,114,181.1,97.6z"/>
		<path class="st1" d="M238.7,100.8c3.7,0,6.6-3,6.6-6.6c0-3.7-3-6.6-6.6-6.6c-3.7,0-6.6,3-6.6,6.6C232,97.8,235,100.8,238.7,100.8"
			/>
		<circle class="st2" cx="238.7" cy="94.2" r="6.6"/>
		<path class="st1" d="M265.7,97.6c0,11.3-9.1,20.4-20.4,20.4c-11.3,0-20.4-9.1-20.4-20.4s9.1-20.4,20.4-20.4
			C256.6,77.2,265.7,86.3,265.7,97.6 M275.1,97.6c0-16.4-13.3-29.7-29.7-29.7c-16.4,0-29.7,13.3-29.7,29.7s13.3,29.7,29.7,29.7
			C261.7,127.3,275.1,114,275.1,97.6"/>
		<path class="st2" d="M265.7,97.6c0,11.3-9.1,20.4-20.4,20.4c-11.3,0-20.4-9.1-20.4-20.4s9.1-20.4,20.4-20.4
			C256.6,77.2,265.7,86.3,265.7,97.6z M275.1,97.6c0-16.4-13.3-29.7-29.7-29.7c-16.4,0-29.7,13.3-29.7,29.7s13.3,29.7,29.7,29.7
			C261.7,127.3,275.1,114,275.1,97.6z"/>
		<path class="st1" d="M146.5,157.2c1.5,1.9,3.2,3.6,4.9,5.3v-11c-1.7-0.7-3.3-1.4-4.9-2.2V157.2z M156.5,166.8
			c2.8,2.2,5.7,4.1,8.8,5.8v-16.4c-3-0.8-5.9-1.7-8.8-2.8V166.8z M170.3,175c2.8,1.2,5.8,2.3,8.8,3.1v-19c-3-0.4-5.9-1-8.8-1.6V175z
			 M184.1,179.2c2.9,0.5,5.8,0.9,8.8,1v-20.1c-3-0.1-5.9-0.2-8.8-0.5V179.2z M197.9,180.3c3-0.1,5.9-0.4,8.8-0.9v-19.6
			c-2.9,0.3-5.8,0.5-8.8,0.5V180.3z M211.7,178.3c3-0.8,6-1.8,8.8-3v-17.8c-2.9,0.6-5.8,1.2-8.8,1.6V178.3z M234.3,153.6
			c-2.9,1-5.8,1.9-8.8,2.7V173c3.1-1.6,6-3.5,8.8-5.6V153.6z M245.1,157.2v-7.9c-1.9,0.9-3.8,1.7-5.7,2.5v11.5
			C241.4,161.3,243.3,159.3,245.1,157.2"/>
		<path class="st2" d="M146.5,157.2c1.5,1.9,3.2,3.6,4.9,5.3v-11c-1.7-0.7-3.3-1.4-4.9-2.2V157.2z M156.5,166.8
			c2.8,2.2,5.7,4.1,8.8,5.8v-16.4c-3-0.8-5.9-1.7-8.8-2.8V166.8z M170.3,175c2.8,1.2,5.8,2.3,8.8,3.1v-19c-3-0.4-5.9-1-8.8-1.6V175z
			 M184.1,179.2c2.9,0.5,5.8,0.9,8.8,1v-20.1c-3-0.1-5.9-0.2-8.8-0.5V179.2z M197.9,180.3c3-0.1,5.9-0.4,8.8-0.9v-19.6
			c-2.9,0.3-5.8,0.5-8.8,0.5V180.3z M211.7,178.3c3-0.8,6-1.8,8.8-3v-17.8c-2.9,0.6-5.8,1.2-8.8,1.6V178.3z M234.3,153.6
			c-2.9,1-5.8,1.9-8.8,2.7V173c3.1-1.6,6-3.5,8.8-5.6V153.6z M245.1,157.2v-7.9c-1.9,0.9-3.8,1.7-5.7,2.5v11.5
			C241.4,161.3,243.3,159.3,245.1,157.2z"/>
	</g>
	<polygon class="st3" points="69,229 69,229 69,233 79,233 79,229 	"/>
	<polygon class="st3" points="83.4,229 83.4,229 83.4,233 156.3,233 156.3,229 	"/>
	<polygon class="st3" points="160.7,229 160.7,229 160.7,233 266.3,233 266.3,229 	"/>
	<polygon class="st3" points="271.8,229 271.8,229 271.8,233 295.2,233 295.2,229 	"/>
	<polygon class="st3" points="300.7,229 300.7,229 300.7,233 310.7,233 310.7,229 	"/>
	<polygon class="st3" points="316.2,229 316.2,229 316.2,233 339.6,233 339.6,229 	"/>
	<rect x="5.5" y="241.2" class="st3" width="10" height="3.9"/>
	<polygon class="st3" points="20,241.2 20,241.2 20,245.1 92.8,245.1 92.8,241.2 	"/>
	<polygon class="st3" points="97.3,241.2 97.3,241.2 97.3,245.1 202.9,245.1 202.9,241.2 	"/>
	<polygon class="st3" points="208.4,241.2 208.4,241.2 208.4,245.1 231.8,245.1 231.8,241.2 	"/>
	<polygon class="st3" points="237.2,241.2 237.2,241.2 237.2,245.1 247.2,245.1 247.2,241.2 	"/>
	<polygon class="st3" points="252.7,241.2 252.7,241.2 252.7,245.1 276.1,245.1 276.1,241.2 	"/>
	<polygon class="st3" points="289.1,241.2 289.1,241.2 289.1,245.1 299.1,245.1 299.1,241.2 	"/>
	<polygon class="st3" points="303.6,241.2 303.6,241.2 303.6,245.1 376.4,245.1 376.4,241.2 	"/>
	<rect x="383.9" y="241.2" class="st3" width="10" height="3.9"/>
	<rect x="171.5" y="255.1" class="st3" width="10" height="3.9"/>
	<rect x="186" y="255.1" class="st3" width="72.8" height="3.9"/>
	<rect x="266.3" y="255.1" class="st3" width="10" height="3.9"/>
</g>
</svg>
