<?xml version="1.0" encoding="utf-8"?>
<!-- Generator: Adobe Illustrator 21.0.2, SVG Export Plug-In . SVG Version: 6.00 Build 0)  -->
<svg version="1.1" id="Layer_1" xmlns="http://www.w3.org/2000/svg" xmlns:xlink="http://www.w3.org/1999/xlink" x="0px" y="0px"
	 viewBox="0 0 363 365" style="enable-background:new 0 0 363 365;" xml:space="preserve">
<style type="text/css">
	.st0{fill:#FFFFFF;}
</style>
<g>
	<path class="st0" d="M185.4,356.1c-98.2,0-178.2-76.8-178.2-175.9c0-99.2,79.1-175,177.3-175c61.2,0,115.1,28.3,149,79.5
		c11,16.5,19.7,35.6,22.8,55.3h-90.5C252.6,105.2,222,81,184.1,81c-54.8,0-90.5,46.6-90.5,98.7c0,52.1,35.6,100.5,90.9,100.5
		c37.9,0,66.3-23.8,81.3-57.1h90.5C336.7,303.1,267.2,356.1,185.4,356.1z"/>
</g>
</svg>
