<?xml version="1.0" encoding="utf-8"?>
<!-- Generator: Adobe Illustrator 21.0.0, SVG Export Plug-In . SVG Version: 6.00 Build 0)  -->
<svg version="1.1" id="Layer_1" xmlns="http://www.w3.org/2000/svg" xmlns:xlink="http://www.w3.org/1999/xlink" x="0px" y="0px"
	 viewBox="0 0 169 193" style="enable-background:new 0 0 169 193;" xml:space="preserve">
<style type="text/css">
	.st0{opacity:0.18;}
	.st1{fill:#FEFEE6;}
	.st2{opacity:0.4;}
	.st3{fill:#A6BECC;}
	.st4{fill:#7494A3;}
	.st5{fill:#C1DDFA;}
	.st6{fill:#50659B;}
	.st7{fill:#F85F79;}
	.st8{fill:#D7EDFF;}
	.st9{fill:#878B9E;}
	.st10{fill:#394C88;}
	.st11{fill:#425B9B;}
	.st12{fill:#FEE5A9;}
	.st13{fill:#BED9ED;}
	.st14{fill:#A4C5D8;}
	.st15{fill:#EEF7FF;}
	.st16{fill:#BFD1DD;}
	.st17{fill:#14AAB2;}
	.st18{fill:#108E8E;}
	.st19{fill:#139E9A;}
	.st20{fill:#21D8D8;}
	.st21{fill:#AFCDE8;}
	.st22{fill:#6D83B2;}
	.st23{fill:#DCDCDC;}
	.st24{fill:#6B7278;}
	.st25{fill:#B0B0B0;}
	.st26{fill:#FFFFFF;}
</style>
<g>
	<g class="st0">
		<g>
			<g>
				<polygon class="st1" points="84.7,126 88.8,123.5 72.2,113.7 68,116.2 				"/>
				<polygon class="st1" points="63.8,114 68,111.5 51.3,101.7 47.2,104.2 				"/>
			</g>
			<g>
				<polygon class="st1" points="43,101.9 47.2,99.4 30.5,89.5 26.3,92 				"/>
				<polygon class="st1" points="22.1,89.9 26.3,87.4 9.6,77.5 5.5,80 				"/>
			</g>
		</g>
		<g>
			<g>
				<polygon class="st1" points="101.4,126.2 105.5,123.7 88.8,113.9 84.7,116.4 				"/>
				<polygon class="st1" points="80.5,114.2 84.7,111.7 68,101.9 63.8,104.4 				"/>
			</g>
			<g>
				<polygon class="st1" points="59.7,102 63.8,99.5 47.2,89.7 43,92.2 				"/>
				<polygon class="st1" points="38.8,90 43,87.5 26.3,77.7 22.1,80.2 				"/>
			</g>
		</g>
	</g>
	<g class="st2">
		<g>
			<g>
				<polygon class="st1" points="93.1,156.6 97.3,154.1 80.6,144.2 76.4,146.7 				"/>
				<polygon class="st1" points="72.3,144.6 76.4,142.1 59.8,132.2 55.6,134.7 				"/>
			</g>
			<g>
				<polygon class="st1" points="51.4,132.4 55.6,129.9 38.9,120.1 34.8,122.6 				"/>
				<polygon class="st1" points="30.6,120.4 34.8,117.9 18.1,108.1 13.9,110.6 				"/>
			</g>
		</g>
		<g>
			<g>
				<polygon class="st1" points="109.8,156.7 114,154.2 97.3,144.4 93.1,146.9 				"/>
				<polygon class="st1" points="88.9,144.7 93.1,142.2 76.4,132.4 72.3,134.9 				"/>
			</g>
			<g>
				<polygon class="st1" points="68.1,132.6 72.3,130.1 55.6,120.2 51.4,122.7 				"/>
				<polygon class="st1" points="47.3,120.6 51.4,118.1 34.8,108.2 30.6,110.7 				"/>
			</g>
		</g>
	</g>
	<g>
		<g>
			<polygon class="st3" points="150.8,78.9 150.8,134.5 163.8,127.3 163,72.1 			"/>
			<polygon class="st4" points="138.7,72.1 138.7,127.7 150.8,134.5 150.8,78.9 			"/>
			<g>
				<polygon class="st5" points="138.7,58 116.3,70.5 129.4,77.5 150.8,64.3 				"/>
				<polygon class="st3" points="129.4,92.5 150.8,78.8 150.4,64.5 129.4,77.5 				"/>
			</g>
			<path class="st3" d="M150.9,79l12.2-6.9c-0.5-7.4-6-10.8-12.7-7.7L150.9,79z"/>
			<path class="st5" d="M158.7,64.1l-12.1-6.8c0,0-3-1.9-8,0.7l11.6,6.4C150.3,64.4,154.6,62.7,158.7,64.1z"/>
		</g>
		<g>
			<g>
				<path class="st6" d="M142.7,30.1c0-11.5-9.8-15.3-21.8-8.4c-12,6.9-21.8,22-21.8,33.6c0,0.4,0,0.8,0,1.2l0,0V97l43.6-23.8V31.2
					l0,0C142.7,30.9,142.7,30.5,142.7,30.1z"/>
				<g>
					<path class="st7" d="M110.4,53.4c0-7.2,5.1-16.1,11.4-19.7c6.2-3.6,11.4-0.6,11.4,6.7s-5.1,16.1-11.4,19.7
						C115.6,63.6,110.4,60.6,110.4,53.4z"/>
				</g>
				<g>
					<path class="st8" d="M115.5,50.5c0-4,2.8-8.9,6.3-10.9c3.4-2,6.3-0.3,6.3,3.7s-2.8,8.9-6.3,10.9
						C118.4,56.1,115.5,54.5,115.5,50.5z"/>
				</g>
				<g>
					<path class="st9" d="M119.4,48.3c0-1.5,1.1-3.4,2.4-4.2c1.3-0.8,2.4-0.1,2.4,1.4s-1.1,3.4-2.4,4.2
						C120.5,50.4,119.4,49.8,119.4,48.3z"/>
				</g>
				<path class="st9" d="M135.2,64.9c0-2.3-1.5-3.3-3.4-2.4v0l0,0c-0.1,0.1-0.2,0.1-0.4,0.2c-0.1,0.1-0.2,0.2-0.4,0.2l-14.8,8.5
					l-3.8,2.3v0.1c-1.9,1.4-3.3,4-3.3,6.3c0,2.4,1.7,3.4,3.8,2.2c0.2-0.1,0.5-0.3,0.7-0.5l18.2-10.4v-0.2
					C133.7,69.9,135.2,67.1,135.2,64.9z"/>
			</g>
			<polygon class="st10" points="99.1,97 69.7,81 69.7,40.5 99.1,53.1 			"/>
			<path class="st11" d="M99.2,53.1c1.1-11.2,10.4-25,21.7-31.4c7.4-4.2,13.9-4.4,17.9-1.3L109.4,4.7c-5.1-2.5-10.5-3-17.9,1.3
				C80.3,12.4,71,26.1,69.9,37.4l-0.1,3.2L99.2,53.1z"/>
			<g>
				<g>
					<path class="st10" d="M105.5,71.2c0-0.7,0.5-1.6,1.2-2c0.6-0.4,1.1,0,1.1,0.7s-0.5,1.6-1.2,2S105.5,71.9,105.5,71.2z"/>
				</g>
				<g>
					<path class="st10" d="M110.2,68.2c0-0.7,0.5-1.6,1.2-2c0.6-0.4,1.1,0,1.1,0.7s-0.5,1.6-1.2,2S110.2,69,110.2,68.2z"/>
				</g>
				<g>
					<path class="st10" d="M107,65.6c0-0.7,0.5-1.6,1.2-2c0.6-0.4,1.1,0,1.1,0.7c0,0.7-0.5,1.6-1.2,2C107.5,66.7,107,66.4,107,65.6z
						"/>
				</g>
			</g>
			<g>
				<g>
					<path class="st10" d="M133.2,58.4c0-0.7,0.5-1.6,1.2-2c0.6-0.4,1.1,0,1.1,0.7c0,0.7-0.5,1.6-1.2,2S133.2,59.1,133.2,58.4z"/>
				</g>
				<g>
					<path class="st10" d="M137.8,55.4c0-0.7,0.5-1.6,1.2-2c0.6-0.4,1.1,0,1.1,0.7c0,0.7-0.5,1.6-1.2,2
						C138.3,56.5,137.8,56.2,137.8,55.4z"/>
				</g>
				<g>
					<path class="st10" d="M134.6,52.8c0-0.7,0.5-1.6,1.2-2c0.6-0.4,1.1,0,1.1,0.7c0,0.7-0.5,1.6-1.2,2
						C135.1,53.9,134.6,53.6,134.6,52.8z"/>
				</g>
			</g>
			<g>
				<path class="st12" d="M120.8,68.8l-3.9,2.3v3.8l0,0c0,0,0,0.1,0,0.1c0,1.2,0.9,1.8,2,1.1c1.1-0.6,2-2.1,2-3.4c0,0,0-0.1,0-0.1
					l0,0V68.8z"/>
				<path class="st12" d="M126.9,65.3l-3.9,2.3v3.8l0,0c0,0,0,0.1,0,0.1c0,1.2,0.9,1.8,2,1.1c1.1-0.6,2-2.1,2-3.4c0,0,0-0.1,0-0.1
					l0,0V65.3z"/>
			</g>
			<polygon class="st13" points="99.1,97 99.1,106 142.7,80.7 142.7,72.9 			"/>
			<polygon class="st14" points="99.1,106 70,89.4 69.7,80.7 99.1,97 			"/>
			<polygon class="st15" points="142.7,80.7 142.7,97 99.1,122.9 99.1,106 			"/>
			<polygon class="st16" points="99.1,106 70,89.4 70,106 99.1,122.9 			"/>
			<polygon class="st13" points="142.7,97 142.7,115 99.1,139.5 99.1,122.9 			"/>
			<polygon class="st14" points="99.1,139.5 99.1,122.9 70,106 70,122.9 			"/>
			<polygon class="st6" points="142.7,115 142.7,148.2 99.1,173.2 99.1,139.5 			"/>
			<polygon class="st10" points="99.1,173.2 99.1,139.5 70,122.9 71.2,156.9 			"/>
			<g>
				<polygon class="st17" points="118.2,92.3 118.1,99.4 122.3,94.1 126.4,94.6 126.4,87.5 122.3,93.2 				"/>
				<polygon class="st18" points="118.1,99.4 117.7,99.2 117.7,92.1 118.2,92.3 				"/>
				<polygon class="st19" points="117.7,92.1 121.9,92.9 122.2,93.1 118.2,92.3 				"/>
				<polygon class="st20" points="122.2,93.1 126.5,87.6 126.2,87.4 121.9,92.9 				"/>
			</g>
		</g>
		<g>
			<path class="st5" d="M63.8,129.2l-12.4-6.5c0-0.2,0-0.5,0-0.7c0-8,5.6-17.8,12.4-21.6l12.4,6.4L63.8,129.2z"/>
			<path class="st3" d="M76.2,124.9L76.2,124.9l-0.1-2.6l0,0l0-15.4c0,0,0,0,0,0c-6.8,3.8-12.4,13.5-12.4,21.6
				c0,8,5.6,11.5,12.4,7.7c0.1-0.1,0.2-0.1,0.3-0.2L76.2,124.9L76.2,124.9z"/>
			<polygon class="st5" points="76.2,93.5 63.8,100.5 76.2,106.9 88.6,100 			"/>
			<polygon class="st3" points="63.8,129.2 63.8,186.3 77.2,178.8 76.3,122.3 			"/>
			<polygon class="st21" points="51.4,122.3 51.4,179.3 63.8,186.3 63.8,129.2 			"/>
			<polygon class="st3" points="76.2,122.3 88.6,114.8 88.2,100.1 76.2,106.9 			"/>
		</g>
		<g>
			<g>
				<polygon class="st10" points="133.4,177.6 112.7,165.6 112.7,153.6 133.4,165.6 				"/>
				<polygon class="st6" points="133.4,177.6 133.4,165.6 154.1,153.6 154.1,165.6 				"/>
				<polygon class="st22" points="112.7,153.6 133.4,141.6 154.1,153.6 133.4,165.6 				"/>
			</g>
			<g>
				<g>
					<polygon class="st23" points="127.6,153.1 133.3,156.5 138.6,153.1 133.1,150.1 					"/>
					<polygon class="st24" points="133.3,156.5 133.3,157.8 138.6,154.7 138.6,153.1 					"/>
					<polygon class="st25" points="127.6,153.1 133.3,156.5 133.3,157.8 127.6,154.7 					"/>
				</g>
				<polygon class="st1" points="133.3,125.1 159.9,116.8 161.7,117.4 134.6,125.7 				"/>
				<polyline class="st12" points="134.6,138.9 134.6,125.7 161.7,117.4 161.7,117.4 				"/>
				<g>
					<polygon class="st25" points="132,125.7 133.3,126.4 133.3,154 132,153.2 					"/>
					<polygon class="st24" points="134.6,125.7 133.3,126.4 133.3,154 134.6,153.2 					"/>
					<polygon class="st26" points="134.6,125.7 133.3,125.1 132,125.7 133.3,126.4 					"/>
				</g>
			</g>
		</g>
	</g>
</g>
</svg>
