<?xml version="1.0" encoding="utf-8"?>
<!-- Generator: Adobe Illustrator 20.0.0, SVG Export Plug-In . SVG Version: 6.00 Build 0)  -->
<svg version="1.1" id="Layer_1" xmlns="http://www.w3.org/2000/svg" xmlns:xlink="http://www.w3.org/1999/xlink" x="0px" y="0px"
	 viewBox="0 0 687.8 68.3" style="enable-background:new 0 0 687.8 68.3;" xml:space="preserve">
<style type="text/css">
	.st0{fill:#FFFFFF;}
</style>
<g>
	<path class="st0" d="M33.2,65.6c-16.9,0-30.4-13.1-30.4-30.1c0-17.2,13.9-29.5,30.7-29.5c12.4,0,25.2,8.1,28.7,20.3H45.6
		c-2.6-4.7-7.2-7.4-12.6-7.4c-9.4,0-15.6,7.6-15.6,16.7c0,9.4,6,17.2,15.7,17.2c6.3,0,11.9-2.9,13.7-9.2H29.7V31.8h34
		c0.1,1,0.1,2,0.1,3C63.8,52.5,50.7,65.6,33.2,65.6z"/>
	<path class="st0" d="M98.8,64.5L85.5,45.9h-0.2v18.5h-14V7.1h18.1c6,0,12.7,0.2,17.7,4.1c4.7,3.8,7,9.7,7,15.6
		c0,8.8-5.2,16.6-14.3,18.1l15.6,19.5H98.8z M90.7,20h-5.3v16h5.2c5.5,0,9.6-2.3,9.6-8.2C100.2,22.1,95.8,20,90.7,20z"/>
	<path class="st0" d="M158.9,64.5l-2.8-8.3h-19.9l-3,8.3h-15.7l23-57.3H152l22.8,57.3H158.9z M146.3,25L146.3,25h-0.2l-5.9,19.6h12
		L146.3,25z"/>
	<path class="st0" d="M217.8,41.5c-5,4.3-10.3,5-16.7,5h-6.4v18h-14V7.1h18.7c5.9,0,12.9,0.2,17.7,4.2c4.5,3.8,6.7,9.3,6.7,15.2
		C223.8,31.8,221.8,38,217.8,41.5z M200.1,20h-5.4v13.6h6c4.8,0,9.1-1.1,9.1-6.9C209.8,20.8,204.9,20,200.1,20z"/>
	<path class="st0" d="M263.3,64.5V41.5h-18.7v22.9h-14.6V7.1h14.6v21.5h18.7V7.1H278v57.3H263.3z"/>
	<path class="st0" d="M288.4,64.5V7.1H303v57.3H288.4z"/>
	<path class="st0" d="M341.3,65.5c-16.7,0-30.2-13-30.2-29.8c0-16.8,13.4-29.7,30.1-29.7c10.4,0,19.5,4.8,25.3,13.5
		c1.9,2.8,3.3,6,3.9,9.4h-15.3c-2.2-5.9-7.4-10-13.9-10c-9.3,0-15.3,7.9-15.3,16.7s6,17,15.4,17c6.4,0,11.2-4,13.8-9.7h15.3
		C366.9,56.6,355.1,65.5,341.3,65.5z"/>
	<path class="st0" d="M421.1,64.5H401V7.1h19c10.4,0,18.8,1.7,25.3,10.7c3.7,5.2,5.3,11.5,5.3,17.8
		C450.6,54.5,439.8,64.5,421.1,64.5z M422,20h-6.4v31.6h6.3c10,0,14-6.4,14-15.7C435.9,26.7,431.8,20,422,20z"/>
	<path class="st0" d="M459.3,64.5V7.1h31.8V20h-17.8v8.9h17.3v12.9h-17.3v9.8h17.8v12.9H459.3z"/>
	<path class="st0" d="M517.6,65.5c-11.5,0-20.7-6-20.7-18.2v-1.9h14.6c0,3.7,1.7,7.8,6,7.8c3,0,5.6-2.4,5.6-5.5c0-3.7-3.1-5-6.1-6.3
		c-1.7-0.8-3.4-1.5-5.1-2.2c-7.4-3.1-14-7.4-14-16.4c0-10.7,10.3-16.9,20.1-16.9c5.6,0,11.9,2.1,15.5,6.5c2.9,3.6,3.6,6.8,3.8,11.3
		h-14.5c-0.5-3.2-1.5-5.6-5.3-5.6c-2.6,0-5,1.8-5,4.5c0,0.9,0.1,1.7,0.5,2.4c1.4,2.3,8.9,5.3,11.3,6.4c7.6,3.5,13.4,7.4,13.4,16.4
		C537.6,60,528.9,65.5,517.6,65.5z"/>
	<path class="st0" d="M544.6,64.5V7.1h14.6v57.3H544.6z"/>
	<path class="st0" d="M597.6,65.6c-16.9,0-30.4-13.1-30.4-30.1c0-17.2,13.9-29.5,30.7-29.5c12.4,0,25.2,8.1,28.7,20.3H610
		c-2.6-4.7-7.2-7.4-12.6-7.4c-9.4,0-15.6,7.6-15.6,16.7c0,9.4,6,17.2,15.7,17.2c6.3,0,11.9-2.9,13.7-9.2h-17.1V31.8h34
		c0.1,1,0.1,2,0.1,3C628.2,52.5,615.1,65.6,597.6,65.6z"/>
	<path class="st0" d="M671.4,64.5l-21.8-34.9l-0.2,0.1l0.4,34.8h-14V7.1h12.6l22.2,36l0.2-0.2l-0.6-35.9h14v57.3H671.4z"/>
</g>
</svg>
