<?xml version="1.0" encoding="utf-8"?>
<!-- Generator: Adobe Illustrator 20.0.0, SVG Export Plug-In . SVG Version: 6.00 Build 0)  -->
<svg version="1.1" id="Layer_1" xmlns="http://www.w3.org/2000/svg" xmlns:xlink="http://www.w3.org/1999/xlink" x="0px" y="0px"
	 viewBox="0 0 310 365" style="enable-background:new 0 0 310 365;" xml:space="preserve">
<style type="text/css">
	.st0{fill:#FFFFFF;}
</style>
<g>
	<path class="st0" d="M4.9,4.8h152.3c22.3,0,42.6,2.8,60.9,8.4c18.3,5.6,33.8,13.7,46.7,24.4c12.9,10.7,22.8,23.8,29.7,39.3
		c6.9,15.6,10.4,33.2,10.4,52.8v1c0,21-3.8,39.4-11.4,55.3c-7.6,15.9-18.2,29.3-31.7,40.1c-13.5,10.8-29.7,19-48.5,24.4
		c-18.8,5.4-39.2,8.1-61.2,8.1h-48.7v101.5H4.9V4.8z M150.1,181.4c17.6,0,31.4-4.2,41.4-12.5c10-8.3,15-19.6,15-33.9v-1
		c0-15.3-5-27-15-35c-10-8-23.9-12-41.9-12h-46.2v94.4H150.1z"/>
</g>
<g>
</g>
<g>
</g>
<g>
</g>
<g>
</g>
<g>
</g>
<g>
</g>
<g>
</g>
<g>
</g>
<g>
</g>
<g>
</g>
<g>
</g>
<g>
</g>
<g>
</g>
<g>
</g>
<g>
</g>
</svg>
