<?xml version="1.0" encoding="utf-8"?>
<!-- Generator: Adobe Illustrator 20.0.0, SVG Export Plug-In . SVG Version: 6.00 Build 0)  -->
<svg version="1.1" id="Layer_1" xmlns="http://www.w3.org/2000/svg" xmlns:xlink="http://www.w3.org/1999/xlink" x="0px" y="0px"
	 viewBox="0 0 560 68.3" style="enable-background:new 0 0 560 68.3;" xml:space="preserve">
<style type="text/css">
	.st0{fill:#FFFFFF;}
</style>
<g>
	<path class="st0" d="M42.3,41.5c-5,4.3-10.3,5-16.7,5h-6.4v18h-14V7.1h18.7c5.9,0,12.9,0.2,17.7,4.2c4.5,3.8,6.7,9.3,6.7,15.2
		C48.3,31.8,46.3,38,42.3,41.5z M24.6,20h-5.4v13.6h6c4.8,0,9.1-1.1,9.1-6.9C34.3,20.8,29.4,20,24.6,20z"/>
	<path class="st0" d="M81.9,64.5L68.6,45.9h-0.2v18.5h-14V7.1h18.1c6,0,12.7,0.2,17.7,4.1c4.7,3.8,7,9.7,7,15.6
		c0,8.8-5.2,16.6-14.3,18.1l15.6,19.5H81.9z M73.8,20h-5.3v16h5.2c5.5,0,9.6-2.3,9.6-8.2C83.3,22.1,78.9,20,73.8,20z"/>
	<path class="st0" d="M133.5,65.5c-16.2,0-30.1-12.5-30.1-29.1c0-4.3,0.7-8.3,2.2-12.2c0.9-2.2,2.2-4.5,3.7-6.4
		c5.9-7.7,14.5-11.8,24.2-11.8c16.7,0,30.3,12.9,30.3,29.7C163.9,52.8,150.3,65.5,133.5,65.5z M133.6,18.9
		c-9.4,0-15.6,7.7-15.6,16.7c0,9.1,6.3,17,15.8,17c9.2,0,15.4-8.1,15.4-16.8C149.2,27,143,18.9,133.6,18.9z"/>
	<path class="st0" d="M192.1,20v44.5h-14.6V20h-11.3V7.1h37.2V20H192.1z"/>
	<path class="st0" d="M235.8,65.5c-16.2,0-30.1-12.5-30.1-29.1c0-4.3,0.7-8.3,2.2-12.2c0.9-2.2,2.2-4.5,3.7-6.4
		c5.9-7.7,14.5-11.8,24.2-11.8c16.7,0,30.3,12.9,30.3,29.7C266.1,52.8,252.6,65.5,235.8,65.5z M235.9,18.9
		c-9.4,0-15.6,7.7-15.6,16.7c0,9.1,6.3,17,15.8,17c9.2,0,15.4-8.1,15.4-16.8C251.5,27,245.3,18.9,235.9,18.9z"/>
	<path class="st0" d="M294.4,20v44.5h-14.6V20h-11.3V7.1h37.2V20H294.4z"/>
	<path class="st0" d="M340,43.6v20.8h-14.6V43.6L308.2,7.1h15.9l8.5,23l8.6-23h15.7L340,43.6z"/>
	<path class="st0" d="M399.9,41.5c-5,4.3-10.3,5-16.7,5h-6.4v18h-14V7.1h18.7c5.9,0,12.9,0.2,17.7,4.2c4.5,3.8,6.7,9.3,6.7,15.2
		C406,31.8,403.9,38,399.9,41.5z M382.3,20h-5.4v13.6h6c4.8,0,9.1-1.1,9.1-6.9C391.9,20.8,387.1,20,382.3,20z"/>
	<path class="st0" d="M412.1,64.5V7.1h14.6v57.3H412.1z"/>
	<path class="st0" d="M472.7,64.5l-21.8-34.9l-0.2,0.1l0.4,34.8h-14V7.1h12.6l22.2,36L472,43l-0.6-35.9h14v57.3H472.7z"/>
	<path class="st0" d="M523.9,65.6c-16.9,0-30.4-13.1-30.4-30.1c0-17.2,13.9-29.5,30.7-29.5c12.4,0,25.2,8.1,28.7,20.3h-16.4
		c-2.6-4.7-7.2-7.4-12.6-7.4c-9.4,0-15.6,7.6-15.6,16.7c0,9.4,6,17.2,15.7,17.2c6.3,0,11.9-2.9,13.7-9.2h-17.1V31.8h34
		c0.1,1,0.1,2,0.1,3C554.5,52.5,541.5,65.6,523.9,65.6z"/>
</g>
</svg>
