<?xml version="1.0" encoding="utf-8"?>
<!-- Generator: Adobe Illustrator 21.0.0, SVG Export Plug-In . SVG Version: 6.00 Build 0)  -->
<svg version="1.1" id="Layer_2" xmlns="http://www.w3.org/2000/svg" xmlns:xlink="http://www.w3.org/1999/xlink" x="0px" y="0px"
	 viewBox="0 0 648.1 380.1" style="enable-background:new 0 0 648.1 380.1;" xml:space="preserve">
<style type="text/css">
	.st0{fill:#FEFEE6;}
	.st1{fill:none;stroke:#FFFFFF;stroke-width:1.417;stroke-miterlimit:10;}
	.st2{fill:none;stroke:#FEFEE6;stroke-miterlimit:10;}
	.st3{fill:#FEFEE6;stroke:#FEFEE6;stroke-miterlimit:10;}
	.st4{fill:#403D66;}
	.st5{fill:#3B375C;}
	.st6{fill:#5D5C9B;}
	.st7{fill:#F76C6C;}
	.st8{fill:#DD6262;}
	.st9{fill:#F87B7B;}
	.st10{fill:none;stroke:#5D5C9B;stroke-miterlimit:10;}
	.st11{fill:#FFB3B3;}
	.st12{fill:#DCDCDC;}
	.st13{fill:#6B7278;}
	.st14{fill:#B0B0B0;}
	.st15{fill:#E5E4D1;}
	.st16{fill:#FFFFFF;}
</style>
<g>
	<g>
		<path class="st0" d="M41.6,130c-2.8-1.6-2.8-4.2,0-5.9c2.8-1.7,7.4-1.7,10.1,0c2.8,1.7,2.8,4.3,0,5.9
			C48.9,131.6,44.4,131.6,41.6,130z"/>
	</g>
	<g>
		<polygon class="st1" points="429.1,370.5 8.2,127.2 218.6,5.5 639.5,248.9 		"/>
		<line class="st1" x1="46.4" y1="149.3" x2="256.8" y2="27.8"/>
		<line class="st1" x1="390.7" y1="348.1" x2="601.1" y2="226.6"/>
		<g>
			<path class="st0" d="M60.7,119.3c-2.8-1.6-2.8-4.2,0-5.9c2.8-1.7,7.4-1.7,10.1,0c2.8,1.7,2.8,4.3,0,5.9
				C68.1,120.9,63.5,120.9,60.7,119.3z"/>
		</g>
		<g>
			<path class="st2" d="M79.1,107.8c-2.8-1.6-2.8-4.2,0-5.9c2.8-1.7,7.4-1.7,10.1,0c2.8,1.7,2.8,4.3,0,5.9
				C86.4,109.4,81.9,109.4,79.1,107.8z"/>
		</g>
		<g>
			<polygon class="st2" points="188.1,37.9 200.5,44.9 229.3,28.3 225.2,26 229.3,23.7 225.2,21.2 221.1,23.7 217.1,21.2 			"/>
			<polygon class="st3" points="208.7,26 221,33.1 200.4,44.9 188,37.8 			"/>
		</g>
		<polygon class="st0" points="494.5,305.6 503.2,310.5 546.6,285.5 537.9,280.6 		"/>
		<g>
			<polygon class="st0" points="235.9,60.8 256,49.3 258.5,50.7 238.4,62.4 			"/>
			<polygon class="st0" points="242.7,64.5 262.9,52.9 265.4,54.3 245.3,66 			"/>
			<polygon class="st0" points="249.2,68.1 269.4,56.5 271.9,58 251.7,69.6 			"/>
			<polygon class="st0" points="255.3,71.8 275.4,60.2 277.9,61.6 257.8,73.3 			"/>
		</g>
		<g>
			<polygon class="st0" points="352.9,225.7 459.1,164.8 463.9,167.5 357.7,228.6 			"/>
			<polygon class="st0" points="366,232.6 472.1,171.7 476.9,174.4 370.7,235.5 			"/>
			<polygon class="st0" points="378.2,239.5 484.4,178.6 489.2,181.3 383,242.4 			"/>
			<polygon class="st0" points="389.7,246.4 476.7,196.2 481.5,198.9 394.4,249.3 			"/>
		</g>
		<g>
			<polygon class="st4" points="330,292.1 291.7,269.9 291.7,247.7 330,269.9 			"/>
			<polygon class="st5" points="330,292.1 330,269.9 368.2,247.7 368.2,269.9 			"/>
			<polygon class="st6" points="291.7,247.7 330,225.5 368.2,247.7 330,269.9 			"/>
		</g>
		<polygon class="st7" points="180,204.9 180,194.2 84.3,138.3 84.3,149 		"/>
		<polygon class="st8" points="180,194.2 294.8,126.8 294.8,138.3 180,204.9 		"/>
		<polygon class="st9" points="84.3,138.3 199.1,74.8 294.8,126.8 180,194.2 		"/>
		<path class="st10" d="M505.6,105.8"/>
		<g>
			<polygon class="st7" points="275.7,105 275.8,71.7 311.8,93.9 311.6,128 			"/>
			<polygon class="st8" points="311.6,128 352.2,105 351.4,71.1 310.9,93.5 			"/>
			<polygon class="st11" points="275.7,71.3 311.6,93.5 352.2,71.3 313.9,48.4 			"/>
		</g>
		<g>
			<path class="st9" d="M392.1,274c-11.4,6.6-12.2,17.5-1.7,24.2c10.5,6.7,28.4,6.8,39.8,0.1l92.5-54.5c11.4-6.7,12.1-17.3,1.6-23.7
				c-10.5-6.3-28.5-6.1-39.9,0.5L392.1,274z"/>
		</g>
		<polygon class="st9" points="199.1,215.6 256.5,246.2 428.7,146.7 371.3,116.1 		"/>
		<g>
			<g>
				<polygon class="st12" points="319.3,246.9 329.9,253.2 339.7,246.9 329.5,241.4 				"/>
				<polygon class="st13" points="329.9,253.2 329.9,255.6 339.7,249.8 339.7,246.9 				"/>
				<polygon class="st14" points="319.3,246.9 329.9,253.2 329.9,255.6 319.3,249.8 				"/>
			</g>
			<polygon class="st0" points="329.9,195 351,182.7 352.9,183.9 332.3,196.2 			"/>
			<polygon class="st15" points="352.9,183.9 346.4,196.2 352.9,199.8 332.3,212.3 332.3,196.2 			"/>
			<g>
				<polygon class="st14" points="327.4,196.2 329.9,197.4 329.9,248.6 327.4,247 				"/>
				<polygon class="st13" points="332.3,196.2 329.9,197.4 329.9,248.6 332.3,247 				"/>
				<polygon class="st16" points="332.3,196.2 329.9,195 327.4,196.2 329.9,197.4 				"/>
			</g>
		</g>
	</g>
</g>
</svg>
