<?xml version="1.0" encoding="utf-8"?>
<!-- Generator: Adobe Illustrator 21.0.2, SVG Export Plug-In . SVG Version: 6.00 Build 0)  -->
<svg version="1.1" id="Layer_1" xmlns="http://www.w3.org/2000/svg" xmlns:xlink="http://www.w3.org/1999/xlink" x="0px" y="0px"
	 viewBox="0 0 167 192.6" style="enable-background:new 0 0 167 192.6;" xml:space="preserve">
<style type="text/css">
	.st0{clip-path:url(#SVGID_2_);fill:#E1E1E1;}
	.st1{clip-path:url(#SVGID_4_);fill:#FBFBFB;}
	.st2{clip-path:url(#SVGID_4_);fill:none;stroke:#DBDBDB;stroke-width:2;}
	.st3{clip-path:url(#SVGID_6_);fill:#FFFFFF;}
	.st4{clip-path:url(#SVGID_6_);fill:#DBDBDB;}
	.st5{clip-path:url(#SVGID_6_);fill:#FBFBFB;}
	.st6{fill:none;stroke:#DBDBDB;stroke-width:3;}
	.st7{clip-path:url(#SVGID_8_);fill:#FFFFFF;}
	.st8{fill:none;stroke:#FFFFFF;}
</style>
<g>
	<g>
		<defs>
			<rect id="SVGID_1_" x="4.3" y="5" width="156.4" height="183"/>
		</defs>
		<clipPath id="SVGID_2_">
			<use xlink:href="#SVGID_1_"  style="overflow:visible;"/>
		</clipPath>
		<path class="st0" d="M31.9,5c0,0-11,0-11,11v161c0,0,0,11,11,11H114c0,0,11,0,11-11V16c0,0,0-11-11-11H31.9z"/>
	</g>
	<g>
		<defs>
			<path id="SVGID_3_" d="M31.9,5c0,0-11,0-11,11v161c0,0,0,11,11,11H114c0,0,11,0,11-11V16c0,0,0-11-11-11H31.9z"/>
		</defs>
		<clipPath id="SVGID_4_">
			<use xlink:href="#SVGID_3_"  style="overflow:visible;"/>
		</clipPath>
		<rect x="20.8" y="5" class="st1" width="104.3" height="22"/>
		<line class="st2" x1="60.1" y1="15.9" x2="82.9" y2="15.9"/>
		<rect x="20.8" y="166" class="st1" width="104.3" height="22"/>
		<line class="st2" x1="60.1" y1="177" x2="82.9" y2="177"/>
	</g>
	<g>
		<defs>
			<rect id="SVGID_5_" x="4.3" y="5" width="156.4" height="183"/>
		</defs>
		<clipPath id="SVGID_6_">
			<use xlink:href="#SVGID_5_"  style="overflow:visible;"/>
		</clipPath>
		<path class="st3" d="M111.4,110.1c0,0-2.8,0-2.8,2.8v3.8c0,0,0,2.8,2.8,2.8h46.5c0,0,2.8,0,2.8-2.8v-3.8c0,0,0-2.8-2.8-2.8H111.4z
			"/>
		<path class="st3" d="M30.7,138.5c0,0-2.3,0-2.3,2.3v14.4c0,0,0,2.3,2.3,2.3h53.1c0,0,2.3,0,2.3-2.3v-14.4c0,0,0-2.3-2.3-2.3H30.7z
			"/>
		<path class="st3" d="M93.3,138.5c0,0-2.3,0-2.3,2.3v14.4c0,0,0,2.3,2.3,2.3H116c0,0,2.3,0,2.3-2.3v-14.4c0,0,0-2.3-2.3-2.3H93.3z"
			/>
		<path class="st4" d="M73,101.3c15.5,0,28.1-12.6,28.1-28.1S88.5,45.2,73,45.2S44.9,57.7,44.9,73.2S57.5,101.3,73,101.3"/>
		<path class="st5" d="M7,63.3c0,0-2.8,0-2.8,2.8v56.7c0,0,0,2.8,2.8,2.8h42.7c0,0,2.8,0,2.8-2.8V66c0,0,0-2.8-2.8-2.8H7z"/>
	</g>
	<line class="st6" x1="14.1" y1="74.1" x2="42.7" y2="74.1"/>
	<line class="st6" x1="14.1" y1="81.3" x2="42.7" y2="81.3"/>
	<line class="st6" x1="14.1" y1="90" x2="42.7" y2="90"/>
	<line class="st6" x1="14.1" y1="98.6" x2="28.4" y2="98.6"/>
	<g>
		<defs>
			<rect id="SVGID_7_" x="4.3" y="5" width="156.4" height="183"/>
		</defs>
		<clipPath id="SVGID_8_">
			<use xlink:href="#SVGID_7_"  style="overflow:visible;"/>
		</clipPath>
		<path class="st7" d="M92,51.1c0,0-2.3,0-2.3,2.3v14.4c0,0,0,2.3,2.3,2.3h53.1c0,0,2.3,0,2.3-2.3V53.4c0,0,0-2.3-2.3-2.3H92z"/>
	</g>
	<line class="st8" x1="66.1" y1="107.8" x2="99.2" y2="107.8"/>
	<line class="st8" x1="66.1" y1="114.8" x2="99.2" y2="114.8"/>
	<line class="st8" x1="66.1" y1="121.5" x2="89.7" y2="121.5"/>
</g>
</svg>
