<?xml version="1.0" encoding="utf-8"?>
<!-- Generator: Adobe Illustrator 19.1.0, SVG Export Plug-In . SVG Version: 6.00 Build 0)  -->
<svg version="1.1" id="Layer_1" xmlns="http://www.w3.org/2000/svg" xmlns:xlink="http://www.w3.org/1999/xlink" x="0px" y="0px"
	 viewBox="-163 373 167.3 48.3" style="enable-background:new -163 373 167.3 48.3;" xml:space="preserve">
<style type="text/css">
	.st0{fill:#E94444;}
</style>
<title>salmon-logo-white</title>
<desc>Created with Sketch.</desc>
<g>
	<path class="st0" d="M-161,410.1v-24.3h9.1v2.7c1.5-1.8,4.7-3.4,7.4-3.4v8.7c-0.5-0.2-1.2-0.3-2.1-0.3c-1.9,0-4.4,0.5-5.4,1.7v14.9
		H-161z"/>
	<path class="st0" d="M-129.9,410.1v-2.3c-1.4,1.7-4.3,2.9-7.3,2.9c-3.6,0-8.4-2.5-8.4-8c0-6,4.7-7.7,8.4-7.7c3.2,0,6,1,7.3,2.7
		v-2.5c0-1.7-1.6-3-4.5-3c-2.3,0-4.8,0.9-6.7,2.4l-3.1-5.6c3.3-2.6,7.8-3.7,11.5-3.7c6,0,11.9,2.1,11.9,10.2v14.7H-129.9z
		 M-129.9,403.5v-1.4c-0.6-0.9-2.2-1.3-3.6-1.3c-1.5,0-3.2,0.5-3.2,2c0,1.5,1.7,2,3.2,2C-132,404.9-130.5,404.4-129.9,403.5z"/>
	<path class="st0" d="M-117.2,411.5c0.6,0.3,1.3,0.5,1.9,0.5c1.8,0,2.9-0.3,3.2-1l0.2-0.5l-9.6-24.7h9.6l4.6,13.9l4.7-13.9h9.6
		l-10.6,27.3c-2.2,5.6-6.2,6.7-11.3,6.8c-0.7,0-2.7-0.2-3.5-0.4L-117.2,411.5z"/>
	<path class="st0" d="M-91.9,410.1v-16.5h-4v-7.8h4v-1.1c0-5,3.9-8.7,9.3-8.7c2.3,0,4.3,0.5,5.6,1.2l-1.7,6.1
		c-0.5-0.4-1.2-0.7-2-0.7c-1.2,0-2.2,0.9-2.2,2v1.1h4.9v7.8h-4.9v16.5H-91.9z M-75.7,379c0-2.8,2.3-5.1,5.1-5.1
		c2.8,0,5.1,2.3,5.1,5.1c0,2.8-2.3,5.1-5.1,5.1C-73.4,384.1-75.7,381.8-75.7,379z M-75.1,410.1v-24.3h9.1v24.3H-75.1z"/>
	<path class="st0" d="M-47,410.1v-13.4c0-2.5-1.4-3.5-3.5-3.5c-2.1,0-3.1,1.1-3.9,1.9v15h-9.1v-24.3h9.1v2.8
		c1.4-1.6,4.1-3.4,8.4-3.4c5.6,0,8.1,3.4,8.1,7.6v17.3H-47z"/>
	<path class="st0" d="M-18.9,410.1v-13.4c0-2.5-1.4-3.5-3.5-3.5c-2.1,0-3.1,1.1-3.9,1.9v15h-9.1v-24.3h9.1v2.8
		c1.4-1.6,4.1-3.4,8.4-3.4c5.6,0,8.1,3.4,8.1,7.6v17.3H-18.9z"/>
	<path class="st0" d="M-8.1,405.4c0-2.9,2.5-5.4,5.4-5.4s5.4,2.5,5.4,5.4c0,2.9-2.5,5.4-5.4,5.4S-8.1,408.3-8.1,405.4z"/>
</g>
</svg>
