<?xml version="1.0" encoding="utf-8"?>
<!-- Generator: Adobe Illustrator 20.0.0, SVG Export Plug-In . SVG Version: 6.00 Build 0)  -->
<svg version="1.1" id="Layer_1" xmlns="http://www.w3.org/2000/svg" xmlns:xlink="http://www.w3.org/1999/xlink" x="0px" y="0px"
	 viewBox="0 0 303.7 68.3" style="enable-background:new 0 0 303.7 68.3;" xml:space="preserve">
<style type="text/css">
	.st0{fill:#FFFFFF;}
</style>
<g>
	<path class="st0" d="M32.6,64.5L19.4,45.9h-0.2v18.5h-14V7.1h18.1c6,0,12.7,0.2,17.7,4.1c4.7,3.8,7,9.7,7,15.6
		c0,8.8-5.2,16.6-14.3,18.1l15.6,19.5H32.6z M24.6,20h-5.3v16h5.2c5.5,0,9.6-2.3,9.6-8.2C34,22.1,29.6,20,24.6,20z"/>
	<path class="st0" d="M55.8,64.5V7.1h31.8V20H69.8v8.9h17.3v12.9H69.8v9.8h17.8v12.9H55.8z"/>
	<path class="st0" d="M114.1,65.5c-11.5,0-20.7-6-20.7-18.2v-1.9H108c0,3.7,1.7,7.8,6,7.8c3,0,5.6-2.4,5.6-5.5c0-3.7-3.1-5-6.1-6.3
		c-1.7-0.8-3.4-1.5-5.1-2.2c-7.4-3.1-14-7.4-14-16.4c0-10.7,10.3-16.9,20.1-16.9c5.6,0,11.9,2.1,15.5,6.5c2.9,3.6,3.6,6.8,3.8,11.3
		h-14.5c-0.5-3.2-1.5-5.6-5.3-5.6c-2.6,0-5,1.8-5,4.5c0,0.9,0.1,1.7,0.5,2.4c1.4,2.3,8.9,5.3,11.3,6.4c7.6,3.5,13.4,7.4,13.4,16.4
		C134.1,60,125.4,65.5,114.1,65.5z"/>
	<path class="st0" d="M179.2,59.4c-4.3,4.4-9.9,6.2-16,6.2c-6,0-12.3-1.7-16.5-6.1c-5.2-5.5-5.7-10.4-5.7-17.7V7.1h14.6v34.6
		c0,5.2,0.9,10.9,7.4,10.9c6.9,0,7.3-5.5,7.3-10.9V7.1h14.6v34.6C184.9,48.6,184.2,54.4,179.2,59.4z"/>
	<path class="st0" d="M242.2,64.5l0.5-42.9l-0.2-0.2l-12.2,43.1h-9.7l-12.2-43.1l-0.2,0.2l0.5,42.9h-13.5V7.1H214l11.4,37.7h0.2
		l11.2-37.7h18.9v57.3H242.2z"/>
	<path class="st0" d="M266,64.5V7.1h31.8V20h-17.8v8.9h17.3v12.9h-17.3v9.8h17.8v12.9H266z"/>
</g>
</svg>
