<?xml version="1.0" encoding="UTF-8" standalone="no"?>
<svg width="285px" height="47px" viewBox="0 0 285 47" version="1.1" xmlns="http://www.w3.org/2000/svg" xmlns:xlink="http://www.w3.org/1999/xlink">
    <!-- Generator: Sketch 3.8.1 (29687) - http://www.bohemiancoding.com/sketch -->
    <title>salmon-logo-white</title>
    <desc>Created with Sketch.</desc>
    <defs></defs>
    <g id="Page-1" stroke="none" stroke-width="1" fill="none" fill-rule="evenodd">
        <g id="salmon-logo-white" fill="#FFFFFF">
            <g id="Page-1">
                <g id="salmon-logo">
                    <g id="final">
                        <path d="M19.488,46.64 C16.0746496,46.64 12.7253498,46.0533392 9.44,44.88 C6.15465024,43.7066608 3.16801344,41.9040122 0.48,39.472 L6.304,32.496 C8.35201024,34.1600083 10.4533226,35.4826618 12.608,36.464 C14.7626774,37.4453382 17.1199872,37.936 19.68,37.936 C21.7280102,37.936 23.3173277,37.5626704 24.448,36.816 C25.5786723,36.0693296 26.144,35.0346733 26.144,33.712 L26.144,33.584 C26.144,32.9439968 26.0266678,32.3786691 25.792,31.888 C25.5573322,31.3973309 25.1093366,30.9386688 24.448,30.512 C23.7866634,30.0853312 22.8693392,29.6586688 21.696,29.232 C20.5226608,28.8053312 18.9973427,28.3573357 17.12,27.888 C14.8586554,27.3333306 12.8106758,26.7146701 10.976,26.032 C9.14132416,25.3493299 7.5840064,24.5066717 6.304,23.504 C5.0239936,22.5013283 4.03200352,21.2533408 3.328,19.76 C2.62399648,18.2666592 2.272,16.4106778 2.272,14.192 L2.272,14.064 C2.272,12.0159898 2.65599616,10.1706749 3.424,8.528 C4.19200384,6.88532512 5.2693264,5.46667264 6.656,4.272 C8.0426736,3.07732736 9.6959904,2.1600032 11.616,1.52 C13.5360096,0.8799968 15.6479885,0.56 17.952,0.56 C21.2373498,0.56 24.2559862,1.05066176 27.008,2.032 C29.7600138,3.01333824 32.2879885,4.42132416 34.592,6.256 L29.472,13.68 C27.4666566,12.3146598 25.5040096,11.2373373 23.584,10.448 C21.6639904,9.65866272 19.7440096,9.264 17.824,9.264 C15.9039904,9.264 14.4640048,9.6373296 13.504,10.384 C12.5439952,11.1306704 12.064,12.0586611 12.064,13.168 L12.064,13.296 C12.064,14.021337 12.2026653,14.650664 12.48,15.184 C12.7573347,15.717336 13.258663,16.1973312 13.984,16.624 C14.709337,17.0506688 15.701327,17.4559981 16.96,17.84 C18.218673,18.2240019 19.8079904,18.6719974 21.728,19.184 C23.9893446,19.7813363 26.0053245,20.4533296 27.776,21.2 C29.5466755,21.9466704 31.0399939,22.8426614 32.256,23.888 C33.4720061,24.9333386 34.3893302,26.159993 35.008,27.568 C35.6266698,28.976007 35.936,30.6613235 35.936,32.624 L35.936,32.752 C35.936,34.9706778 35.5306707,36.9439914 34.72,38.672 C33.9093293,40.4000086 32.7786739,41.8506608 31.328,43.024 C29.8773261,44.1973392 28.1493434,45.0933302 26.144,45.712 C24.1386566,46.3306698 21.9200122,46.64 19.488,46.64 L19.488,46.64 Z M70.24,27.248 L64.288,12.72 L58.336,27.248 L70.24,27.248 Z M59.872,0.88 L68.96,0.88 L88.16,46 L77.856,46 L73.76,35.952 L54.816,35.952 L50.72,46 L40.672,46 L59.872,0.88 Z M95.072,1.2 L104.928,1.2 L104.928,37.04 L127.264,37.04 L127.264,46 L95.072,46 L95.072,1.2 Z M134.688,1.2 L145.312,1.2 L157.088,20.144 L168.864,1.2 L179.488,1.2 L179.488,46 L169.696,46 L169.696,16.752 L157.088,35.888 L156.832,35.888 L144.352,16.944 L144.352,46 L134.688,46 L134.688,1.2 Z M212.128,37.68 C214.090676,37.68 215.903992,37.317337 217.568,36.592 C219.232008,35.866663 220.650661,34.8640064 221.824,33.584 C222.997339,32.3039936 223.914663,30.8213418 224.576,29.136 C225.237337,27.4506582 225.568,25.6480096 225.568,23.728 L225.568,23.6 C225.568,21.6799904 225.237337,19.8666752 224.576,18.16 C223.914663,16.4533248 222.976006,14.9600064 221.76,13.68 C220.543994,12.3999936 219.104008,11.3866704 217.44,10.64 C215.775992,9.8933296 213.962676,9.52 212,9.52 C209.994657,9.52 208.170675,9.88266304 206.528,10.608 C204.885325,11.333337 203.477339,12.3359936 202.304,13.616 C201.130661,14.8960064 200.213337,16.3786582 199.552,18.064 C198.890663,19.7493418 198.56,21.5519904 198.56,23.472 L198.56,23.6 C198.56,25.5200096 198.890663,27.3333248 199.552,29.04 C200.213337,30.7466752 201.151994,32.2399936 202.368,33.52 C203.584006,34.8000064 205.013325,35.8133296 206.656,36.56 C208.298675,37.3066704 210.122657,37.68 212.128,37.68 L212.128,37.68 Z M212,46.768 C208.543983,46.768 205.365348,46.1600061 202.464,44.944 C199.562652,43.7279939 197.056011,42.0853437 194.944,40.016 C192.831989,37.9466563 191.189339,35.5146806 190.016,32.72 C188.842661,29.9253194 188.256,26.928016 188.256,23.728 L188.256,23.6 C188.256,20.399984 188.853327,17.4026806 190.048,14.608 C191.242673,11.8133194 192.895989,9.36001056 195.008,7.248 C197.120011,5.13598944 199.637319,3.47200608 202.56,2.256 C205.482681,1.03999392 208.671983,0.432 212.128,0.432 C215.584017,0.432 218.762652,1.03999392 221.664,2.256 C224.565348,3.47200608 227.071989,5.11465632 229.184,7.184 C231.296011,9.25334368 232.938661,11.6853194 234.112,14.48 C235.285339,17.2746806 235.872,20.271984 235.872,23.472 L235.872,23.6 C235.872,26.800016 235.274673,29.7973194 234.08,32.592 C232.885327,35.3866806 231.232011,37.8399894 229.12,39.952 C227.007989,42.0640106 224.490681,43.7279939 221.568,44.944 C218.645319,46.1600061 215.456017,46.768 212,46.768 L212,46.768 Z M244.64,1.2 L253.728,1.2 L274.72,28.784 L274.72,1.2 L284.448,1.2 L284.448,46 L276.064,46 L254.368,17.52 L254.368,46 L244.64,46 L244.64,1.2 Z" id="SALMON"></path>
                    </g>
                </g>
            </g>
        </g>
    </g>
</svg>