<?xml version="1.0" encoding="utf-8"?>
<!-- Generator: Adobe Illustrator 20.0.0, SVG Export Plug-In . SVG Version: 6.00 Build 0)  -->
<svg version="1.1" id="Layer_1" xmlns="http://www.w3.org/2000/svg" xmlns:xlink="http://www.w3.org/1999/xlink" x="0px" y="0px"
	 viewBox="0 0 624.5 68.3" style="enable-background:new 0 0 624.5 68.3;" xml:space="preserve">
<style type="text/css">
	.st0{fill:#FFFFFF;}
</style>
<g>
	<path class="st0" d="M43.3,59.4c-4.3,4.4-9.9,6.2-16,6.2c-6,0-12.3-1.7-16.5-6.1C5.6,53.9,5,49,5,41.8V7.1h14.6v34.6
		c0,5.2,0.9,10.9,7.4,10.9c6.9,0,7.3-5.5,7.3-10.9V7.1H49v34.6C49,48.6,48.3,54.4,43.3,59.4z"/>
	<path class="st0" d="M76.7,65.5c-11.5,0-20.7-6-20.7-18.2v-1.9h14.6c0,3.7,1.7,7.8,6,7.8c3,0,5.6-2.4,5.6-5.5c0-3.7-3.1-5-6.1-6.3
		c-1.7-0.8-3.4-1.5-5.1-2.2c-7.4-3.1-14-7.4-14-16.4c0-10.7,10.3-16.9,20.1-16.9c5.6,0,11.9,2.1,15.5,6.5c2.9,3.6,3.6,6.8,3.8,11.3
		H81.7c-0.5-3.2-1.5-5.6-5.3-5.6c-2.6,0-5,1.8-5,4.5c0,0.9,0.1,1.7,0.5,2.4c1.4,2.3,8.9,5.3,11.3,6.4C90.9,35,96.7,39,96.7,48
		C96.7,60,88,65.5,76.7,65.5z"/>
	<path class="st0" d="M103.7,64.5V7.1h31.8V20h-17.8v8.9H135v12.9h-17.3v9.8h17.8v12.9H103.7z"/>
	<path class="st0" d="M172,64.5l-13.2-18.5h-0.2v18.5h-14V7.1h18.1c6,0,12.7,0.2,17.7,4.1c4.7,3.8,7,9.7,7,15.6
		c0,8.8-5.2,16.6-14.3,18.1l15.6,19.5H172z M163.9,20h-5.3v16h5.2c5.5,0,9.6-2.3,9.6-8.2C173.4,22.1,169,20,163.9,20z"/>
	<path class="st0" d="M219.1,64.5V7.1h14.6v57.3H219.1z"/>
	<path class="st0" d="M279.8,64.5l-21.8-34.9l-0.2,0.1l0.4,34.8h-14V7.1h12.6l22.2,36l0.2-0.2l-0.6-35.9h14v57.3H279.8z"/>
	<path class="st0" d="M324.5,20v44.5h-14.6V20h-11.3V7.1h37.2V20H324.5z"/>
	<path class="st0" d="M341.6,64.5V7.1h31.8V20h-17.8v8.9h17.3v12.9h-17.3v9.8h17.8v12.9H341.6z"/>
	<path class="st0" d="M409.9,64.5l-13.2-18.5h-0.2v18.5h-14V7.1h18.1c6,0,12.7,0.2,17.7,4.1c4.7,3.8,7,9.7,7,15.6
		c0,8.8-5.2,16.6-14.3,18.1l15.6,19.5H409.9z M401.9,20h-5.3v16h5.2c5.5,0,9.6-2.3,9.6-8.2C411.3,22.1,406.9,20,401.9,20z"/>
	<path class="st0" d="M447.1,20v9.8h16.7v12.9h-16.7v21.8h-14V7.1h31.3V20H447.1z"/>
	<path class="st0" d="M504.6,64.5l-2.8-8.3h-19.9l-3,8.3h-15.7l23-57.3h11.5l22.8,57.3H504.6z M492,25L492,25h-0.2l-5.9,19.6h12
		L492,25z"/>
	<path class="st0" d="M550.4,65.5c-16.7,0-30.2-13-30.2-29.8c0-16.8,13.4-29.7,30.1-29.7c10.4,0,19.5,4.8,25.3,13.5
		c1.9,2.8,3.3,6,3.9,9.4H564c-2.2-5.9-7.4-10-13.9-10c-9.3,0-15.3,7.9-15.3,16.7s6,17,15.4,17c6.4,0,11.2-4,13.8-9.7h15.3
		C576,56.6,564.2,65.5,550.4,65.5z"/>
	<path class="st0" d="M586.9,64.5V7.1h31.8V20H601v8.9h17.3v12.9H601v9.8h17.8v12.9H586.9z"/>
</g>
</svg>
